<svg xmlns:xlink="http://www.w3.org/1999/xlink" width="64" xmlns="http://www.w3.org/2000/svg" height="64" id="screenshot-b2fd26c2-315d-8079-8003-939d46a48659" viewBox="0 0 64 64" style="-webkit-print-color-adjust: exact;" fill="none" version="1.1"><g id="shape-b2fd26c2-315d-8079-8003-939d46a48659" rx="0" ry="0"><g id="shape-b2fd26c2-315d-8079-8003-939be55d49a7"><g class="fills" id="fills-b2fd26c2-315d-8079-8003-939be55d49a7"><rect rx="0" ry="0" x="0" y="0" transform="matrix(1.000000, 0.000000, 0.000000, 1.000000, 0.000000, 0.000000)" width="64" height="64"/></g></g><g id="shape-d9cabaee-b8e0-806b-8003-939912caa0e6" width="35.829" height="42" rx="0" ry="0" style="opacity: 0.64; fill: rgb(0, 0, 0);"><g id="shape-d9cabaee-b8e0-806b-8003-939912caa0e8"><g class="fills" id="fills-d9cabaee-b8e0-806b-8003-939912caa0e8"><path rx="0" ry="0" d="M58.500,27.370C58.499,14.400,49.361,3.282,36.779,0.943C24.198,-1.396,11.765,5.713,7.227,17.840C2.689,29.966,7.341,43.649,18.285,50.363L21.706,44.642C13.497,39.610,9.999,29.353,13.388,20.252C16.778,11.152,26.090,5.801,35.531,7.529C44.971,9.257,51.851,17.571,51.890,27.299C51.928,37.027,45.114,45.397,35.688,47.201L35.688,25.258L32.056,25.258L28.469,31.558L28.469,63.497L35.686,63.497L35.686,53.981C36.767,53.828,37.837,53.606,38.890,53.318L44.085,63.497L52.221,63.497L45.526,50.462C53.566,45.622,58.496,36.844,58.500,27.370ZZ" style="fill: rgb(242, 105, 92);"/></g></g></g></g></svg>