<svg xmlns:xlink="http://www.w3.org/1999/xlink" width="64" xmlns="http://www.w3.org/2000/svg" height="64" id="screenshot-b2fd26c2-315d-8079-8003-939d46a48659" viewBox="0 0 64 64" style="-webkit-print-color-adjust: exact;" fill="none" version="1.1"><g id="shape-b2fd26c2-315d-8079-8003-939d46a48659" rx="0" ry="0"><g id="shape-b2fd26c2-315d-8079-8003-939be55d49a7"><g class="fills" id="fills-b2fd26c2-315d-8079-8003-939be55d49a7"><rect rx="0" ry="0" x="0" y="0" transform="matrix(1.000000, 0.000000, 0.000000, 1.000000, 0.000000, 0.000000)" width="64" height="64"/></g></g><g id="shape-9f4fe889-86a9-808a-8003-9476e36f3343"><g class="fills" id="fills-9f4fe889-86a9-808a-8003-9476e36f3343"><ellipse rx="32" ry="32.00000000000003" cx="32" cy="32.00000000000003" transform="matrix(1.000000, 0.000000, 0.000000, 1.000000, 0.000000, 0.000000)" style="fill: rgb(242, 105, 92); fill-opacity: 1;"/></g></g><g id="shape-d9cabaee-b8e0-806b-8003-939912caa0e6" width="35.829" height="42" rx="0" ry="0" style="opacity: 1; fill: rgb(0, 0, 0);"><g id="shape-d9cabaee-b8e0-806b-8003-939912caa0e8"><g class="fills" id="fills-d9cabaee-b8e0-806b-8003-939912caa0e8"><path rx="0" ry="0" d="M51.000,27.899C50.999,17.811,44.102,9.163,34.607,7.345C25.112,5.526,15.728,11.054,12.303,20.486C8.878,29.918,12.390,40.561,20.649,45.783L23.231,41.333C17.035,37.419,14.395,29.441,16.953,22.363C19.512,15.285,26.540,11.123,33.665,12.467C40.790,13.811,45.982,20.278,46.011,27.844C46.040,35.410,40.898,41.920,33.783,43.323L33.783,26.256L31.043,26.256L28.335,31.156L28.335,55.998L33.782,55.998L33.782,48.596C34.598,48.477,35.405,48.305,36.200,48.081L40.121,55.998L46.261,55.998L41.208,45.860C47.276,42.095,50.997,35.268,51.000,27.899ZZ" style="fill: rgb(255, 255, 255);"/></g></g></g></g></svg>