<svg xmlns="http://www.w3.org/2000/svg" width="23.988" height="24" viewBox="0 0 23.988 24"><path d="M18.832-9.785a2.6,2.6,0,0,1,.99.193,2.516,2.516,0,0,1,.838.557l2.578,2.578a2.516,2.516,0,0,1,.557.838,2.6,2.6,0,0,1,.193.99,2.6,2.6,0,0,1-.193.99,2.516,2.516,0,0,1-.557.838l-.164.164q-.633.633-1.16,1.125a6.145,6.145,0,0,1-1.1.826,4.879,4.879,0,0,1-1.277.51A6.982,6.982,0,0,1,17.859,0a10.6,10.6,0,0,1-3.012-.457,16.71,16.71,0,0,1-3.076-1.266,22.055,22.055,0,0,1-3-1.922A26,26,0,0,1,5.994-6.076,26.678,26.678,0,0,1,3.586-8.865a21.852,21.852,0,0,1-1.9-3A16.825,16.825,0,0,1,.445-14.918,10.506,10.506,0,0,1,0-17.871a7.061,7.061,0,0,1,.17-1.664,4.763,4.763,0,0,1,.5-1.266,6.118,6.118,0,0,1,.82-1.1q.486-.521,1.119-1.154l.188-.187a2.611,2.611,0,0,1,.832-.562,2.52,2.52,0,0,1,1-.2,2.533,2.533,0,0,1,.99.2,2.593,2.593,0,0,1,.838.563L9.035-20.66a2.516,2.516,0,0,1,.557.838,2.6,2.6,0,0,1,.193.99,2.286,2.286,0,0,1-.176.92,3.324,3.324,0,0,1-.434.732,4.337,4.337,0,0,1-.568.6q-.311.27-.568.527a3.446,3.446,0,0,0-.434.521,1,1,0,0,0-.176.568,1.038,1.038,0,0,0,.316.762L14.2-7.746a1.038,1.038,0,0,0,.762.316,1,1,0,0,0,.568-.176,3.446,3.446,0,0,0,.521-.434q.258-.258.527-.568a4.337,4.337,0,0,1,.6-.568,3.324,3.324,0,0,1,.732-.434A2.286,2.286,0,0,1,18.832-9.785ZM17.859-1.5a5.354,5.354,0,0,0,1.412-.158A3.647,3.647,0,0,0,20.3-2.115a5.3,5.3,0,0,0,.891-.744q.434-.445,1-1.008a1.038,1.038,0,0,0,.316-.762,1.019,1.019,0,0,0-.17-.5,4.4,4.4,0,0,0-.439-.6q-.27-.316-.6-.65t-.656-.633q-.322-.3-.6-.551t-.428-.4a1.052,1.052,0,0,0-.773-.316.978.978,0,0,0-.562.176,3.617,3.617,0,0,0-.516.434q-.258.258-.533.568a4.619,4.619,0,0,1-.6.568,3.324,3.324,0,0,1-.732.434,2.286,2.286,0,0,1-.92.176,2.6,2.6,0,0,1-.99-.193,2.516,2.516,0,0,1-.838-.557L6.68-13.137a2.516,2.516,0,0,1-.557-.838,2.6,2.6,0,0,1-.193-.99,2.286,2.286,0,0,1,.176-.92,3.324,3.324,0,0,1,.434-.732,4.619,4.619,0,0,1,.568-.6q.311-.275.568-.533a3.617,3.617,0,0,0,.434-.516.978.978,0,0,0,.176-.562,1.052,1.052,0,0,0-.316-.773q-.152-.152-.4-.428t-.551-.6q-.3-.322-.633-.656t-.65-.6a4.4,4.4,0,0,0-.6-.439,1.019,1.019,0,0,0-.5-.17,1.038,1.038,0,0,0-.762.316q-.562.563-1,1a5.972,5.972,0,0,0-.75.891,3.461,3.461,0,0,0-.469,1.025,5.3,5.3,0,0,0-.158,1.4,9.211,9.211,0,0,0,.428,2.707A15.227,15.227,0,0,0,3.1-12.375,21.242,21.242,0,0,0,4.887-9.627a24.486,24.486,0,0,0,2.25,2.561A25.193,25.193,0,0,0,9.709-4.84a21.23,21.23,0,0,0,2.742,1.764,15.119,15.119,0,0,0,2.766,1.16A9.129,9.129,0,0,0,17.859-1.5Z" transform="translate(0 24)" fill="#808080"/></svg>