<svg xmlns="http://www.w3.org/2000/svg" width="22.5" height="21" viewBox="0 0 22.5 21"><path d="M12-3v1.5h3V0H7.5V-1.5h3V-3H0V-16.5H12L10.488-15H1.5V-4.5H21v-9L22.5-15V-3ZM6-7.5a1.454,1.454,0,0,0,.586-.117,1.524,1.524,0,0,0,.475-.322,1.524,1.524,0,0,0,.322-.475A1.454,1.454,0,0,0,7.5-9a2.922,2.922,0,0,1,.205-1.09A3.037,3.037,0,0,1,8.268-11a3.122,3.122,0,0,1,.844-.662,2.8,2.8,0,0,1,1.061-.322L18.5-20.32a2.275,2.275,0,0,1,.762-.5A2.35,2.35,0,0,1,20.156-21a2.3,2.3,0,0,1,.908.182,2.327,2.327,0,0,1,.744.5,2.327,2.327,0,0,1,.5.744,2.329,2.329,0,0,1,.182.92,2.35,2.35,0,0,1-.176.891,2.275,2.275,0,0,1-.5.762L13.477-8.672a2.9,2.9,0,0,1-.316,1.055,2.949,2.949,0,0,1-.662.85,3.136,3.136,0,0,1-.914.563A2.877,2.877,0,0,1,10.5-6H3V-7.5Zm14.156-12a.8.8,0,0,0-.586.246l-5.215,5.215a6.529,6.529,0,0,1,1.184,1.184l5.215-5.215A.8.8,0,0,0,21-18.656a.8.8,0,0,0-.252-.6A.82.82,0,0,0,20.156-19.5Zm-7.945,7.605a4.069,4.069,0,0,1,1.184,1.184l1.078-1.066a4.827,4.827,0,0,0-1.2-1.2ZM12-9a1.454,1.454,0,0,0-.117-.586,1.524,1.524,0,0,0-.322-.475,1.524,1.524,0,0,0-.475-.322A1.454,1.454,0,0,0,10.5-10.5a1.454,1.454,0,0,0-.586.117,1.524,1.524,0,0,0-.475.322,1.524,1.524,0,0,0-.322.475A1.454,1.454,0,0,0,9-9a3,3,0,0,1-.4,1.5h1.9a1.466,1.466,0,0,0,.58-.117,1.506,1.506,0,0,0,.48-.322,1.506,1.506,0,0,0,.322-.48A1.466,1.466,0,0,0,12-9Z" transform="translate(0 21)" fill="gray"/></svg>