<svg xmlns="http://www.w3.org/2000/svg" width="64" height="65" viewBox="0 0 64 65"><g transform="translate(-1219 -1737)"><rect width="64" height="65" transform="translate(1219 1737)" fill="none"/><path d="M-16.5-36.406a3.378,3.378,0,0,1,.906.141q.5.141,1.016.328t1,.406q.484.219.891.375l-.516.063a4.412,4.412,0,0,1-.516.031,2.628,2.628,0,0,1-.969-.172,6.725,6.725,0,0,1-.828-.391q-.391-.219-.75-.391a1.566,1.566,0,0,0-.672-.172,1.24,1.24,0,0,0-.562.125q-.25.125-.5.281,0-.125-.219-.125a1.744,1.744,0,0,1,.813-.359A4.284,4.284,0,0,1-16.5-36.406ZM-12.281-35a6.1,6.1,0,0,1,2.344.438q-.438.156-.875.266a3.723,3.723,0,0,1-.906.109,4.647,4.647,0,0,1-1.125-.125.865.865,0,0,1,.313-.328A.582.582,0,0,0-12.281-35ZM0-64a30.954,30.954,0,0,1,8.484,1.156,32.608,32.608,0,0,1,7.625,3.234,32.055,32.055,0,0,1,6.484,5.016,32.054,32.054,0,0,1,5.016,6.484,32.608,32.608,0,0,1,3.234,7.625A30.954,30.954,0,0,1,32-32a30.954,30.954,0,0,1-1.156,8.484,32.608,32.608,0,0,1-3.234,7.625,32.054,32.054,0,0,1-5.016,6.484,32.054,32.054,0,0,1-6.484,5.016A32.608,32.608,0,0,1,8.484-1.156,30.954,30.954,0,0,1,0,0,30.954,30.954,0,0,1-8.484-1.156a32.608,32.608,0,0,1-7.625-3.234,32.054,32.054,0,0,1-6.484-5.016,32.054,32.054,0,0,1-5.016-6.484,32.608,32.608,0,0,1-3.234-7.625A30.954,30.954,0,0,1-32-32a30.954,30.954,0,0,1,1.156-8.484,32.608,32.608,0,0,1,3.234-7.625,32.055,32.055,0,0,1,5.016-6.484,32.054,32.054,0,0,1,6.484-5.016,32.608,32.608,0,0,1,7.625-3.234A30.954,30.954,0,0,1,0-64ZM23.813-46.656q-.437-.687-.875-1.328t-.906-1.266a.93.93,0,0,1-.172.406.946.946,0,0,0-.109.563.823.823,0,0,0,.234.547,2.859,2.859,0,0,0,.563.484,4.767,4.767,0,0,0,.672.375A3.578,3.578,0,0,0,23.813-46.656Zm-2.156-3.062a.485.485,0,0,1-.094.344h.188a.435.435,0,0,1,.188.031ZM0-4a26.988,26.988,0,0,0,6.969-.906,28.7,28.7,0,0,0,6.453-2.578,28.192,28.192,0,0,0,5.625-4.062,28.582,28.582,0,0,0,4.516-5.359q-.406-.937-.781-1.906a5.494,5.494,0,0,1-.375-2,12.337,12.337,0,0,1,.109-1.828q.109-.7.2-1.2t.141-.922a2.443,2.443,0,0,0-.109-.953A7.416,7.416,0,0,0,22.2-27q-.391-.75-1.141-1.937.031-.219.109-.594a6.137,6.137,0,0,0,.109-.781,6.386,6.386,0,0,0,.016-.766,1.275,1.275,0,0,0-.141-.578,10.968,10.968,0,0,1-1.7-.344,4.553,4.553,0,0,1-1.547-.75l.188-.156a4.928,4.928,0,0,0-.812.266q-.406.172-.8.328a7.147,7.147,0,0,1-.8.266,3.231,3.231,0,0,1-.844.109l-.5-.062.094-.219q-.438.125-.953.313a2.805,2.805,0,0,1-.953.188,2.893,2.893,0,0,1-.906-.219,10.891,10.891,0,0,1-1.2-.531,5.839,5.839,0,0,1-1.062-.687,1.008,1.008,0,0,1-.453-.719l.063-.094a1.684,1.684,0,0,0-.406-.344q-.25-.156-.484-.312a1.81,1.81,0,0,1-.391-.344.663.663,0,0,1-.156-.437l.344-.281-.719-.094-.25-.937q.062.156.3.125a.569.569,0,0,0,.328-.125l-1.125-.594.781-2a5.114,5.114,0,0,1-.2-2.5,3.1,3.1,0,0,1,.828-1.453A10.525,10.525,0,0,1,9.2-44.391a6.521,6.521,0,0,0,1.516-1.516l-.094-.375,2.063-2.5.469-.062q.875,0,1.969-.078t2.219-.219q1.125-.141,2.219-.312t2-.391a28.8,28.8,0,0,0-2.109-2.25q-1.109-1.062-2.328-2.031-.344.125-.859.359a6.155,6.155,0,0,0-.984.563,3.861,3.861,0,0,0-.8.734,1.329,1.329,0,0,0-.328.844l.188.594a2.512,2.512,0,0,1-1.25,1.141,4.689,4.689,0,0,1-1.422.25q-.734.016-1.5-.016a3.337,3.337,0,0,0-1.484.281l-.5-1.062.469-1.812-.531-.781,5.406-1.687a2.482,2.482,0,0,0-1.141-1.312,3.485,3.485,0,0,0-1.7-.437v-.312l1.75-.281A28.56,28.56,0,0,0,6.391-59.25,27.419,27.419,0,0,0,0-60a27.341,27.341,0,0,0-5.375.531,28.133,28.133,0,0,0-5.141,1.547,29.2,29.2,0,0,0-4.766,2.484A26.3,26.3,0,0,0-19.5-52.062a1.786,1.786,0,0,1,1.266.422,6.655,6.655,0,0,1,.813.906,9.25,9.25,0,0,0,.766.906,1.448,1.448,0,0,0,1.094.422l.5-.375-.062-.687,1.031-1.469-.812-2.312q.156-.094.484-.312a1.051,1.051,0,0,1,.516-.219,8.62,8.62,0,0,1,1.453.094,1.953,1.953,0,0,1,.859.359,3.175,3.175,0,0,1,.656.719q.312.453.875,1.172l1.125-.875q.312.125,1.016.422a13.24,13.24,0,0,1,1.391.688,8.581,8.581,0,0,1,1.219.828,1.167,1.167,0,0,1,.531.813.9.9,0,0,1-.359.75,3.118,3.118,0,0,1-.891.469,7.126,7.126,0,0,1-1.172.3q-.641.109-1.172.234a3.669,3.669,0,0,0-.906.328.594.594,0,0,0-.375.516l1.813.594a11.067,11.067,0,0,1-1.359.984,13.688,13.688,0,0,1-1.484.8l.125.531-2.875,1.125v.875l-.219.094.156-1.094-.125-.031q-.219,0-.266.094a.309.309,0,0,0-.016.219,2.3,2.3,0,0,0,.078.25.245.245,0,0,1,.016.188l-.406-.219.063.125a.65.65,0,0,0,.109.281,2.776,2.776,0,0,0,.25.359q.141.172.25.313l.109.141q0,.094-.141.188a1.106,1.106,0,0,1-.3.141q-.156.047-.25.078t0,.031q.438,0,.172.063a3.911,3.911,0,0,0-.766.313,3.839,3.839,0,0,0-.984.734,1.838,1.838,0,0,0-.484,1.359q0,.531.047,1.031a3.848,3.848,0,0,1-.047,1.031A3.738,3.738,0,0,0-17.5-39.187a3.56,3.56,0,0,0-2.125-.625l-1.344.125.656.438q-.531-.062-1.109-.125a5.975,5.975,0,0,0-1.141-.016,3.782,3.782,0,0,0-1.078.25,2.5,2.5,0,0,0-.922.641l-.187,1.406a2.776,2.776,0,0,0,.453,1.641,1.727,1.727,0,0,0,1.516.641,5.887,5.887,0,0,0,1.844-.3q.906-.3,1.781-.641a14.089,14.089,0,0,1-.625,1.328,5.194,5.194,0,0,0-.5,1.359l.406.188a1.259,1.259,0,0,1,1.375-.156,4.772,4.772,0,0,1,1.219,1q.594.656,1.219,1.359a3.546,3.546,0,0,0,1.344.984l-1.062.563-2.5-1.406a1.484,1.484,0,0,1,.078.281q.047.219-.047.094l-1.125-1.906a9.733,9.733,0,0,1-2.141-.328,18.6,18.6,0,0,1-2.266-.75,19.756,19.756,0,0,1-2.172-1.031,15.047,15.047,0,0,1-1.828-1.172L-28-32a27.049,27.049,0,0,0,1.031,7.438,28.671,28.671,0,0,0,2.922,6.813,28.6,28.6,0,0,0,4.578,5.828,26.744,26.744,0,0,0,6.031,4.453,3.1,3.1,0,0,1-.031-1.312,12.083,12.083,0,0,1,.328-1.312q.2-.656.406-1.328a4.572,4.572,0,0,0,.2-1.328,7.784,7.784,0,0,0-.312-2.109,20.736,20.736,0,0,0-.766-2.219q-.453-1.109-.953-2.2t-.859-2.078a9.451,9.451,0,0,1-.484-1.812,2.386,2.386,0,0,1,.188-1.453l-.469-.219a3.6,3.6,0,0,1,.516-.844q.328-.406.641-.828a5.812,5.812,0,0,0,.531-.859,2.068,2.068,0,0,0,.219-.937,1.851,1.851,0,0,0-.141-.672,4.423,4.423,0,0,1-.2-.641l.656.156a3.162,3.162,0,0,1,1.453-1.672,5.106,5.106,0,0,1,2.266-.453,3.194,3.194,0,0,1,.656.141q.5.141,1.063.328l1.078.359q.516.172.734.234,0,.219.266.3t.266.2l-.062.25a3.849,3.849,0,0,1,.453.234q.359.2.75.453t.719.5a5.14,5.14,0,0,1,.422.344,4.7,4.7,0,0,1,1.547.375,21.033,21.033,0,0,1,2.109.953,25.627,25.627,0,0,1,2.3,1.344,20.929,20.929,0,0,1,2.109,1.563A11.434,11.434,0,0,1,5.7-22.453a2.3,2.3,0,0,1,.609,1.359L5.25-19.969a5.466,5.466,0,0,1-.234,2.453,3.3,3.3,0,0,1-1.062,1.391,7.824,7.824,0,0,1-1.656.938A15.244,15.244,0,0,0,.281-14.125a3.5,3.5,0,0,1-.312,1.359,6.477,6.477,0,0,1-.8,1.375,4.8,4.8,0,0,1-1.125,1.078,2.281,2.281,0,0,1-1.3.438l-1.312-1q.062.063-.016.234t-.141.047a2.023,2.023,0,0,1,.156,1.375,7.159,7.159,0,0,1-.531,1.594,12.982,12.982,0,0,1-.844,1.547,14.141,14.141,0,0,1-.844,1.2,27.552,27.552,0,0,0,3.375.656A26.469,26.469,0,0,0,0-4Z" transform="translate(1251 1801)" fill="gray"/></g></svg>