<svg xmlns="http://www.w3.org/2000/svg" width="22.671" height="32" viewBox="0 0 22.671 32"><g transform="translate(-0.445)"><path d="M11.767,96.477l-9.258-2.57L.445,70.766H23.116L21.051,93.9l-9.284,2.574Z" transform="translate(0 -64.477)" fill="#264de4"/><path d="M135.5,111.829l1.765-19.772H128v21.852Z" transform="translate(-116.22 -83.876)" fill="#2965f1"/><path d="M48.428,129.739l.254,2.838h6.351v-2.838ZM47.917,124l.258,2.838h6.859V124Zm7.117,13.115-.012,0-3.161-.853-.2-2.264H48.809l.4,4.456,5.814,1.614.013,0Z" transform="translate(-43.253 -112.976)" fill="#ebebeb"/><path d="M60.484,0h3.437V1.438h-2V2.875h2V4.312H60.484Zm4.125,0h3.437V1.25h-2V1.5h2V4.375H64.609V3.062h2v-.25h-2V0Zm4.125,0h3.437V1.25h-2V1.5h2V4.375H68.734V3.062h2v-.25h-2V0Z" transform="translate(-54.704)"/><path d="M134.486,129.739,135,124h-7.11v2.838h4l-.258,2.906h-3.741v2.838h3.495l-.33,3.681-3.165.854v2.953l5.818-1.613.043-.48.667-7.472Z" transform="translate(-116.118 -112.976)" fill="#fff"/></g></svg>