<svg xmlns="http://www.w3.org/2000/svg" width="88.267" height="41.986" viewBox="0 0 88.267 41.986"><g transform="translate(-472.01 -41.016)"><path d="M35.812,17.906A17.9,17.9,0,1,0,8.638,33.228l2.312-3.812a13.442,13.442,0,1,1,9.45,1.7V16.5H15.494l.025,25.481H20.4V35.638a17.785,17.785,0,0,0,2.16-.438l3.511,6.785h5.5L27.045,33.3a17.91,17.91,0,0,0,8.766-15.39Z" transform="translate(472 41)" fill="#6f2c91"/><g transform="translate(509.947 61.692)"><path d="M0,0H.519V7.405H0Z" transform="translate(0.134 2.962)" fill="#6f2c91"/><path d="M0,0H.519V.815H0Z" transform="translate(0.134)" fill="#6f2c91"/><path d="M829.8,474.971a4.714,4.714,0,0,0-1.421.245,6.488,6.488,0,0,0-1.3.555,2.03,2.03,0,0,0-1.866-.8,4.453,4.453,0,0,0-1.326.2,5.2,5.2,0,0,0-.866.326l-.355.2v-.6h-.52v7.4h.519v-6.32l.311-.193a4.652,4.652,0,0,1,.918-.363,4.1,4.1,0,0,1,1.2-.186q1.2,0,1.555.644a6.24,6.24,0,0,1,.355,2.6v3.821h.519v-3.851a8.045,8.045,0,0,0-.267-2.488l.326-.178a5.211,5.211,0,0,1,2.221-.549q1.2,0,1.555.644a6.247,6.247,0,0,1,.355,2.6v3.8h0v3.451a12.534,12.534,0,0,0-1.955-.178,2.787,2.787,0,0,0-2.437.97,5.191,5.191,0,0,0-.689,2.984,7.334,7.334,0,0,0,.186,1.762,3.809,3.809,0,0,0,.425,1.111,1.663,1.663,0,0,0,.629.571,2.121,2.121,0,0,0,.644.237,5.623,5.623,0,0,0,.74.037,4.478,4.478,0,0,0,1.252-.237,4.844,4.844,0,0,0,1.2-.519v.621h.519V482.507h0v-3.851a6.133,6.133,0,0,0-.474-2.94,2.148,2.148,0,0,0-1.956-.744Zm1.906,17.217-.355.193a5.489,5.489,0,0,1-1,.385,3.981,3.981,0,0,1-1.118.193,2.477,2.477,0,0,1-.763-.1,1.777,1.777,0,0,1-.614-.392q-.682-.622-.681-2.754a5.006,5.006,0,0,1,.541-2.636,2.234,2.234,0,0,1,2.036-.844,13.184,13.184,0,0,1,1.955.177Z" transform="translate(-819.147 -472.14)" fill="#6f2c91"/><path d="M1065.05,481.521v-4.265q0-2.307-2.163-2.307a18.338,18.338,0,0,0-2.843.267l.047.488.459-.059a19.6,19.6,0,0,1,2.337-.192,1.629,1.629,0,0,1,1.237.429,1.952,1.952,0,0,1,.408,1.377v.77l-2.814.3a2.341,2.341,0,0,0-1.555.637,2.667,2.667,0,0,0,.022,3.11,1.855,1.855,0,0,0,1.428.548,7.66,7.66,0,0,0,2.993-.637,1.745,1.745,0,0,0,1.525.622l.03-.459Q1065.11,482.059,1065.05,481.521Zm-.519.015-.415.15a9.456,9.456,0,0,1-1.14.3,6.593,6.593,0,0,1-1.377.155,1.248,1.248,0,0,1-1.015-.437,1.875,1.875,0,0,1-.362-1.237,1.764,1.764,0,0,1,.355-1.2,1.805,1.805,0,0,1,1.2-.488l2.754-.282Z" transform="translate(-1044.785 -472.121)" fill="#6f2c91"/><path d="M767.756,697.026V692.76q0-2.307-2.163-2.307a18.326,18.326,0,0,0-2.843.267l.044.49.458-.059a19.555,19.555,0,0,1,2.34-.193,1.629,1.629,0,0,1,1.237.429,1.953,1.953,0,0,1,.407,1.377v.771l-2.814.3a2.344,2.344,0,0,0-1.555.637,2.669,2.669,0,0,0,.022,3.11,1.861,1.861,0,0,0,1.429.549,7.657,7.657,0,0,0,2.992-.637,1.745,1.745,0,0,0,1.525.622l.03-.459Q767.817,697.559,767.756,697.026Zm-.519.014-.415.15a9.332,9.332,0,0,1-1.14.3,6.59,6.59,0,0,1-1.377.156,1.249,1.249,0,0,1-1.015-.436,1.875,1.875,0,0,1-.362-1.237,1.763,1.763,0,0,1,.355-1.2,1.806,1.806,0,0,1,1.2-.49L767.24,694Z" transform="translate(-762.38 -676.832)" fill="#6f2c91"/><path d="M1073.66,699.434l-.311.193a4.742,4.742,0,0,1-.918.363,4.1,4.1,0,0,1-1.2.185q-1.2,0-1.555-.644a6.241,6.241,0,0,1-.355-2.6V693.11h-.519v3.85a6.122,6.122,0,0,0,.474,2.94,2.153,2.153,0,0,0,1.953.748,4.081,4.081,0,0,0,1.2-.2,5.148,5.148,0,0,0,.866-.326l.355-.2v.593h.519v-7.4h-.519Z" transform="translate(-1053.458 -679.359)" fill="#6f2c91"/><path d="M1219.44,694.491a5.387,5.387,0,0,0-1.984-.593,5.157,5.157,0,0,1-1.837-.511,1.112,1.112,0,0,1-.415-.985q0-1.481,1.984-1.481a16.8,16.8,0,0,1,2.518.237l.029-.489-.385-.059a14.79,14.79,0,0,0-2.253-.163,3.943,3.943,0,0,0-1.11.156,1.926,1.926,0,0,0-.931.623,1.975,1.975,0,0,0-.4,1.325,1.357,1.357,0,0,0,.548,1.222,5.249,5.249,0,0,0,1.948.578,5.693,5.693,0,0,1,1.853.5,1.281,1.281,0,0,1,.451,1.17,1.379,1.379,0,0,1-.576,1.258,2.8,2.8,0,0,1-1.526.37,17.4,17.4,0,0,1-2.547-.251l-.059.49.429.059a15.165,15.165,0,0,0,2.014.177,3.589,3.589,0,0,0,2.106-.512,1.871,1.871,0,0,0,.711-1.629,1.668,1.668,0,0,0-.567-1.49Z" transform="translate(-1192.016 -676.83)" fill="#6f2c91"/><path d="M1362.52,628.353a6.55,6.55,0,0,0-2.68.578V625.08h-.519v10.811h.519V629.42l.355-.151a5.666,5.666,0,0,1,.985-.3,5.556,5.556,0,0,1,1.237-.15q1.2,0,1.555.644a6.241,6.241,0,0,1,.355,2.6v3.825h.519v-3.85a6.127,6.127,0,0,0-.474-2.94,2.03,2.03,0,0,0-1.852-.742Z" transform="translate(-1329.433 -614.735)" fill="#6f2c91"/><path d="M1511.69,690.45q-2.992,0-2.991,3.836a5.4,5.4,0,0,0,.607,2.881,2.423,2.423,0,0,0,2.177.955q1.081,0,2.74-.133l-.029-.474-.444.029q-1.155.1-2.325.1a1.842,1.842,0,0,1-1.673-.777,4.439,4.439,0,0,1-.5-2.376h5.257V694a4.213,4.213,0,0,0-.7-2.708,2.588,2.588,0,0,0-2.114-.842Zm-2.444,3.569q0-3.1,2.444-3.095a2.031,2.031,0,0,1,1.725.711,4.012,4.012,0,0,1,.54,2.384Z" transform="translate(-1471.334 -676.832)" fill="#6f2c91"/><path d="M1652.05,693.11l-2.148,6.932h-.652l-2.089-6.932h-.6l2.3,7.405h1.452l2.3-7.405Z" transform="translate(-1602.283 -679.359)" fill="#6f2c91"/></g></g></svg>