<svg xmlns="http://www.w3.org/2000/svg" width="32" height="32" viewBox="0 0 32 32"><g transform="translate(-4.1 -4.2)"><path d="M36.1,20.2a16,16,0,1,1-16-16A16,16,0,0,1,36.1,20.2Z" fill="#ca2127"/><path d="M73.206,62.025c-4.508.484-9,3.953-9.181,8.919-.119,3.031,1.15,5.3,4.18,5.943a16.184,16.184,0,0,0,.411-2.209,5.909,5.909,0,0,1-1.469-2.091c-1.113-6.536,7.913-11,12.649-6.436,3.267,3.168,1.113,12.908-4.162,11.9-5.056-.968,2.473-8.718-1.561-10.243-3.276-1.242-5.019,3.789-3.468,6.281-.913,4.291-2.875,8.335-2.081,13.712,2.583-1.78,3.45-5.194,4.162-8.755,1.3.749,1.99,1.534,3.641,1.652,6.1.447,9.5-5.8,8.67-11.566C84.248,64.015,78.9,61.413,73.206,62.025Z" transform="translate(-54.447 -52.472)" fill="#fff"/></g></svg>