<svg xmlns="http://www.w3.org/2000/svg" width="16.5" height="24" viewBox="0 0 16.5 24"><path d="M11.25-24a8.15,8.15,0,0,1,2.191.293,8.26,8.26,0,0,1,1.975.832,8.251,8.251,0,0,1,1.67,1.289,8.251,8.251,0,0,1,1.289,1.67,8.26,8.26,0,0,1,.832,1.975A8.15,8.15,0,0,1,19.5-15.75a7.687,7.687,0,0,1-.645,3.152,8.6,8.6,0,0,1-1.84,2.637,6.927,6.927,0,0,0-1.494,2.145A6.294,6.294,0,0,0,15-5.25v3a2.207,2.207,0,0,1-.176.879,2.257,2.257,0,0,1-.48.715,2.257,2.257,0,0,1-.715.48A2.207,2.207,0,0,1,12.75,0h-3a2.207,2.207,0,0,1-.879-.176,2.257,2.257,0,0,1-.715-.48,2.257,2.257,0,0,1-.48-.715A2.207,2.207,0,0,1,7.5-2.25v-3a6.294,6.294,0,0,0-.521-2.566A6.927,6.927,0,0,0,5.484-9.961,8.6,8.6,0,0,1,3.645-12.6,7.687,7.687,0,0,1,3-15.75a8.15,8.15,0,0,1,.293-2.191,8.259,8.259,0,0,1,.832-1.975,8.251,8.251,0,0,1,1.289-1.67,8.251,8.251,0,0,1,1.67-1.289,8.26,8.26,0,0,1,1.975-.832A8.15,8.15,0,0,1,11.25-24Zm1.5,22.5a.721.721,0,0,0,.527-.223A.721.721,0,0,0,13.5-2.25V-4.5H9v2.25a.721.721,0,0,0,.223.527A.721.721,0,0,0,9.75-1.5ZM13.535-6a7.756,7.756,0,0,1,.773-2.742,9.1,9.1,0,0,1,1.676-2.3,7.287,7.287,0,0,0,1.494-2.15A6.2,6.2,0,0,0,18-15.75a6.53,6.53,0,0,0-.533-2.625A6.854,6.854,0,0,0,16.02-20.52a6.854,6.854,0,0,0-2.145-1.447A6.53,6.53,0,0,0,11.25-22.5a6.53,6.53,0,0,0-2.625.533A6.854,6.854,0,0,0,6.48-20.52a6.854,6.854,0,0,0-1.447,2.145A6.53,6.53,0,0,0,4.5-15.75a6.2,6.2,0,0,0,.521,2.561,7.287,7.287,0,0,0,1.494,2.15,9.1,9.1,0,0,1,1.676,2.3A7.756,7.756,0,0,1,8.965-6Z" transform="translate(-3 24)" fill="gray"/></svg>