<svg xmlns="http://www.w3.org/2000/svg" width="32" height="32" viewBox="0 0 32 32"><circle cx="16" cy="16" r="16" fill="#00aff0"/><path d="M8.3,19.791a16.535,16.535,0,0,1-2.878-.206A6.822,6.822,0,0,1,.474,16.011a3.089,3.089,0,0,1-.186-2.924,2.027,2.027,0,0,1,1.835-.855c.878,0,1.436.467,2.13,1.786C5.2,15.9,6.013,16.49,7.9,16.63c.129.006.257.008.381.008a4.443,4.443,0,0,0,3.261-1.108,1.462,1.462,0,0,0,.618-1.375,1.675,1.675,0,0,0-.413-1.237c-.608-.677-1.291-1.027-3.917-1.649-3.748-.9-4.754-1.318-5.978-2.474C.692,7.775.474,7.24.474,5.428A3.842,3.842,0,0,1,1.779,1.993C3.139.633,5.191,0,8.239,0c2.834,0,4.568.52,6.185,1.855A3.7,3.7,0,0,1,15.73,4.976,1.932,1.932,0,0,1,14.7,6.528a2.315,2.315,0,0,1-.988.25c-.714,0-1.339-.451-1.968-1.418-1.058-1.681-1.9-2.221-3.464-2.221-.183,0-.376.007-.59.022A3.409,3.409,0,0,0,4.872,4.329a1.1,1.1,0,0,0,.137,1.58c.538.605,1.1.877,3.78,1.512a29.166,29.166,0,0,1,4.389,1.34,6.109,6.109,0,0,1,2.277,1.546,4.724,4.724,0,0,1,1.159,2.68,5.683,5.683,0,0,1-.541,3.093,7.13,7.13,0,0,1-5.017,3.5h.069A15.622,15.622,0,0,1,8.3,19.791Z" transform="translate(7.611 6.078)" fill="#fff"/></svg>