<svg xmlns="http://www.w3.org/2000/svg" width="24" height="25" viewBox="0 0 24 25"><defs><style>.a{fill:none;}.b{fill:#e6e6e6;}</style></defs><g transform="translate(-648 -550)"><rect class="a" width="24" height="25" transform="translate(648 550)"/><path class="b" d="M15.586-9.9a10.039,10.039,0,0,1,2.877,1.541,10.178,10.178,0,0,1,2.18,2.291A10.446,10.446,0,0,1,22.02-3.223,10.8,10.8,0,0,1,22.5,0H21a9.19,9.19,0,0,0-.686-3.568,8.737,8.737,0,0,0-1.893-2.854,8.737,8.737,0,0,0-2.854-1.893A9.191,9.191,0,0,0,12-9a9.134,9.134,0,0,0-2.414.316,9.043,9.043,0,0,0-2.162.9A8.775,8.775,0,0,0,5.607-6.393,8.775,8.775,0,0,0,4.213-4.576a9.043,9.043,0,0,0-.9,2.162A9.134,9.134,0,0,0,3,0H1.5a10.547,10.547,0,0,1,.492-3.229,10.444,10.444,0,0,1,1.395-2.83A10.3,10.3,0,0,1,5.572-8.332,10.635,10.635,0,0,1,8.438-9.891a7.369,7.369,0,0,1-1.641-1.2A7.446,7.446,0,0,1,5.561-12.65a7.682,7.682,0,0,1-.785-1.84A7.383,7.383,0,0,1,4.5-16.5a7.334,7.334,0,0,1,.586-2.924,7.545,7.545,0,0,1,1.605-2.385,7.545,7.545,0,0,1,2.385-1.605A7.334,7.334,0,0,1,12-24a7.334,7.334,0,0,1,2.924.586,7.545,7.545,0,0,1,2.385,1.605,7.545,7.545,0,0,1,1.605,2.385A7.334,7.334,0,0,1,19.5-16.5a7.32,7.32,0,0,1-.275,2,7.6,7.6,0,0,1-.785,1.828,7.759,7.759,0,0,1-1.23,1.564A7.256,7.256,0,0,1,15.586-9.9ZM6-16.5a5.777,5.777,0,0,0,.475,2.332,6.121,6.121,0,0,0,1.289,1.9,6.121,6.121,0,0,0,1.9,1.289A5.777,5.777,0,0,0,12-10.5a5.777,5.777,0,0,0,2.332-.475,6.121,6.121,0,0,0,1.9-1.289,6.121,6.121,0,0,0,1.289-1.9A5.777,5.777,0,0,0,18-16.5a5.777,5.777,0,0,0-.475-2.332,6.121,6.121,0,0,0-1.289-1.9,6.121,6.121,0,0,0-1.9-1.289A5.777,5.777,0,0,0,12-22.5a5.777,5.777,0,0,0-2.332.475,6.121,6.121,0,0,0-1.9,1.289,6.121,6.121,0,0,0-1.289,1.9A5.777,5.777,0,0,0,6-16.5Z" transform="translate(648.5 574)"/></g></svg>