<svg xmlns="http://www.w3.org/2000/svg" width="32" height="32" viewBox="0 0 32 32"><circle cx="16" cy="16" r="16" fill="#2cb741"/><path d="M312.269,323.872c-.361-.8-.741-.819-1.084-.833-.281-.012-.6-.011-.924-.011a1.771,1.771,0,0,0-1.285.6,5.4,5.4,0,0,0-1.687,4.019,9.375,9.375,0,0,0,1.968,4.984c.241.321,3.334,5.342,8.232,7.274,4.071,1.605,4.9,1.286,5.783,1.206a4.867,4.867,0,0,0,3.253-2.291,4.025,4.025,0,0,0,.281-2.291c-.121-.2-.442-.321-.924-.562s-2.851-1.407-3.293-1.568-.763-.241-1.084.241-1.244,1.567-1.525,1.888-.562.362-1.044.121a13.183,13.183,0,0,1-3.875-2.392,14.515,14.515,0,0,1-2.681-3.337c-.281-.482-.03-.743.212-.983.216-.216.482-.563.723-.844a3.3,3.3,0,0,0,.481-.8.887.887,0,0,0-.04-.844C313.634,327.208,312.7,324.825,312.269,323.872Z" transform="translate(-301.104 -316.097)" fill="#fff" fill-rule="evenodd"/></svg>