<svg xmlns="http://www.w3.org/2000/svg" width="32" height="32" viewBox="0 0 32 32"><g transform="translate(-601 -951)"><rect width="32" height="32" transform="translate(601 951)" fill="none"/><path d="M2-4a1.938,1.938,0,0,0,.156.781,2.033,2.033,0,0,0,.43.633,2.033,2.033,0,0,0,.633.43A1.938,1.938,0,0,0,4-2H18V0H4A3.893,3.893,0,0,1,2.445-.312a4.04,4.04,0,0,1-1.273-.859A4.04,4.04,0,0,1,.313-2.445,3.893,3.893,0,0,1,0-4V-28a3.52,3.52,0,0,1,.336-1.492,4.418,4.418,0,0,1,.891-1.281A4.452,4.452,0,0,1,2.5-31.664,3.5,3.5,0,0,1,4-32H26v18H24V-30H4a1.6,1.6,0,0,0-.719.18,2.448,2.448,0,0,0-.641.461,2.448,2.448,0,0,0-.461.641A1.6,1.6,0,0,0,2-28V-7.469A3.882,3.882,0,0,1,4-8H20v2H4a1.938,1.938,0,0,0-.781.156,2.033,2.033,0,0,0-.633.43,2.033,2.033,0,0,0-.43.633A1.938,1.938,0,0,0,2-4ZM6-20v-6H20v6Zm2-2H18v-2H8ZM28.875-5.234a5.868,5.868,0,0,1,1.3.953,6.079,6.079,0,0,1,.984,1.242,6,6,0,0,1,.625,1.453A5.8,5.8,0,0,1,32,0H30a3.893,3.893,0,0,0-.312-1.555,4.04,4.04,0,0,0-.859-1.273,4.04,4.04,0,0,0-1.273-.859A3.893,3.893,0,0,0,26-4a3.893,3.893,0,0,0-1.555.313,4.04,4.04,0,0,0-1.273.859,4.04,4.04,0,0,0-.859,1.273A3.893,3.893,0,0,0,22,0H20a5.8,5.8,0,0,1,.219-1.586,6,6,0,0,1,.625-1.453,6.079,6.079,0,0,1,.984-1.242,5.868,5.868,0,0,1,1.3-.953A3.977,3.977,0,0,1,22.3-6.5,3.892,3.892,0,0,1,22-8a3.893,3.893,0,0,1,.313-1.555,4.04,4.04,0,0,1,.859-1.273,4.04,4.04,0,0,1,1.273-.859A3.893,3.893,0,0,1,26-12a3.893,3.893,0,0,1,1.555.313,4.04,4.04,0,0,1,1.273.859,4.04,4.04,0,0,1,.859,1.273A3.893,3.893,0,0,1,30-8a3.892,3.892,0,0,1-.3,1.5A3.977,3.977,0,0,1,28.875-5.234ZM26-6a1.938,1.938,0,0,0,.781-.156,2.033,2.033,0,0,0,.633-.43,2.033,2.033,0,0,0,.43-.633A1.938,1.938,0,0,0,28-8a1.938,1.938,0,0,0-.156-.781,2.033,2.033,0,0,0-.43-.633,2.033,2.033,0,0,0-.633-.43A1.938,1.938,0,0,0,26-10a1.938,1.938,0,0,0-.781.156,2.033,2.033,0,0,0-.633.43,2.033,2.033,0,0,0-.43.633A1.938,1.938,0,0,0,24-8a1.938,1.938,0,0,0,.156.781,2.033,2.033,0,0,0,.43.633,2.033,2.033,0,0,0,.633.43A1.938,1.938,0,0,0,26-6Z" transform="translate(601 983)" fill="#6f2c91"/></g></svg>