<svg xmlns="http://www.w3.org/2000/svg" width="32" height="32" viewBox="0 0 32 32"><g transform="translate(-664 -887)"><path d="M32-30V-4H0V-30ZM2-28v2H30v-2ZM30-6V-24H2V-6ZM21.75-20l4.016,10H24.344L20.328-20ZM11.5-18.812a4.222,4.222,0,0,0-1.508.258,3.129,3.129,0,0,0-1.156.75,3.4,3.4,0,0,0-.742,1.219,4.78,4.78,0,0,0-.266,1.648,4.775,4.775,0,0,0,.242,1.563,3.289,3.289,0,0,0,.7,1.2,3.076,3.076,0,0,0,1.133.758,4.14,4.14,0,0,0,1.531.266,5.448,5.448,0,0,0,1.086-.109,3.9,3.9,0,0,0,.9-.281l.25.969a4.186,4.186,0,0,1-.984.3,7.464,7.464,0,0,1-1.5.133,5.288,5.288,0,0,1-1.836-.312,4.176,4.176,0,0,1-1.477-.914A4.167,4.167,0,0,1,6.9-12.852a5.484,5.484,0,0,1-.352-2.039A5.441,5.441,0,0,1,6.906-16.9a4.515,4.515,0,0,1,1.008-1.562,4.547,4.547,0,0,1,1.547-1.008,5.32,5.32,0,0,1,1.992-.359,5.658,5.658,0,0,1,1.438.148,4.654,4.654,0,0,1,.8.273l-.3.984a3.679,3.679,0,0,0-.82-.281A4.8,4.8,0,0,0,11.5-18.812ZM16-18h2v2H16Zm0,4h2v2H16Z" transform="translate(664 920)" fill="gray"/><rect width="32" height="32" transform="translate(664 887)" fill="none"/></g></svg>