<svg xmlns="http://www.w3.org/2000/svg" width="24" height="20.25" viewBox="0 0 24 20.25"><path d="M18.539-11.52a7.257,7.257,0,0,1,.721,1.764,7.413,7.413,0,0,1,.24,1.881v1.207L12-2.906,4.5-6.668q0-.7.018-1.312A9.825,9.825,0,0,1,4.623-9.17,6.656,6.656,0,0,1,4.9-10.318a6.9,6.9,0,0,1,.557-1.2L3-12.75v6.879a2.164,2.164,0,0,1,.615.328,2.268,2.268,0,0,1,.475.492,2.207,2.207,0,0,1,.3.615A2.263,2.263,0,0,1,4.5-3.75V0H0V-3.75a2.263,2.263,0,0,1,.105-.686,2.207,2.207,0,0,1,.3-.615,2.268,2.268,0,0,1,.475-.492A2.164,2.164,0,0,1,1.5-5.871V-13.5L0-14.25l12-6,12,6ZM3-3.75a.721.721,0,0,0-.223-.527A.721.721,0,0,0,2.25-4.5a.721.721,0,0,0-.527.223A.721.721,0,0,0,1.5-3.75V-1.5H3Zm.352-10.5L12-9.926l8.648-4.324L12-18.574ZM18-7.594a7.635,7.635,0,0,0-.176-1.682,5.9,5.9,0,0,0-.621-1.576L12-8.25l-5.2-2.6a6.145,6.145,0,0,0-.592,1.436A5.859,5.859,0,0,0,6-7.875v.281l6,3Z" transform="translate(0 20.25)" fill="gray"/></svg>