<svg xmlns="http://www.w3.org/2000/svg" width="24" height="18" viewBox="0 0 24 18"><path d="M24-19.5v15H0v-15H7.5V-21a1.454,1.454,0,0,1,.117-.586,1.524,1.524,0,0,1,.322-.475,1.524,1.524,0,0,1,.475-.322A1.454,1.454,0,0,1,9-22.5h6a1.454,1.454,0,0,1,.586.117,1.524,1.524,0,0,1,.475.322,1.524,1.524,0,0,1,.322.475A1.454,1.454,0,0,1,16.5-21v1.5Zm-15,0h6V-21H9ZM1.5-18v2.168L9-12.094V-13.5h6v1.406l7.5-3.738V-18Zm9,6v1.5h3V-12Zm12,6v-8.168L15-10.406V-9H9v-1.406L1.5-14.168V-6Z" transform="translate(0 22.5)" fill="gray"/></svg>