<svg xmlns="http://www.w3.org/2000/svg" width="64" height="65" viewBox="0 0 64 65"><g transform="translate(-1025 -1737)"><rect width="64" height="65" transform="translate(1025 1737)" fill="none"/><path d="M0-64a23.484,23.484,0,0,1,6.375.859,24.326,24.326,0,0,1,5.734,2.422,23.923,23.923,0,0,1,4.859,3.75,23.923,23.923,0,0,1,3.75,4.859,24.326,24.326,0,0,1,2.422,5.734A23.485,23.485,0,0,1,24-40v14a5.886,5.886,0,0,1-.469,2.344A6.02,6.02,0,0,1,22.25-21.75a6.02,6.02,0,0,1-1.906,1.281A5.886,5.886,0,0,1,18-20H12V-40h6a4.812,4.812,0,0,1,1.031.109,9.441,9.441,0,0,1,.969.266,20.524,20.524,0,0,0-1.531-7.922,20.461,20.461,0,0,0-4.2-6.469,19.727,19.727,0,0,0-6.344-4.375A19.515,19.515,0,0,0,0-60a19.578,19.578,0,0,0-5.312.719,20.287,20.287,0,0,0-4.781,2.016,19.911,19.911,0,0,0-4.047,3.125,19.911,19.911,0,0,0-3.125,4.047,20.286,20.286,0,0,0-2.016,4.781A19.578,19.578,0,0,0-20-40v.375a9.442,9.442,0,0,1,.969-.266A4.812,4.812,0,0,1-18-40h6v20h-4v4a7.785,7.785,0,0,0,.625,3.109,8.08,8.08,0,0,0,1.719,2.547,8.08,8.08,0,0,0,2.547,1.719A7.785,7.785,0,0,0-8-8a3.876,3.876,0,0,1,.313-1.562,4.065,4.065,0,0,1,.859-1.266,4.065,4.065,0,0,1,1.266-.859A3.876,3.876,0,0,1-4-12H4a3.876,3.876,0,0,1,1.563.313,4.065,4.065,0,0,1,1.266.859,4.065,4.065,0,0,1,.859,1.266A3.876,3.876,0,0,1,8-8v4a3.876,3.876,0,0,1-.312,1.563,4.065,4.065,0,0,1-.859,1.266,4.065,4.065,0,0,1-1.266.859A3.876,3.876,0,0,1,4,0H-4A3.876,3.876,0,0,1-5.562-.312a4.065,4.065,0,0,1-1.266-.859,4.065,4.065,0,0,1-.859-1.266A3.876,3.876,0,0,1-8-4a11.661,11.661,0,0,1-4.672-.937,12.144,12.144,0,0,1-3.812-2.578,12.144,12.144,0,0,1-2.578-3.812A11.661,11.661,0,0,1-20-16v-4.375a5.771,5.771,0,0,1-1.641-.875,5.9,5.9,0,0,1-1.25-1.3,6.248,6.248,0,0,1-.812-1.625A5.744,5.744,0,0,1-24-26V-40a23.484,23.484,0,0,1,.859-6.375,24.326,24.326,0,0,1,2.422-5.734,23.923,23.923,0,0,1,3.75-4.859,23.923,23.923,0,0,1,4.859-3.75,24.326,24.326,0,0,1,5.734-2.422A23.485,23.485,0,0,1,0-64ZM-4-4H4V-8H-4ZM-18-36a1.922,1.922,0,0,0-1.406.594A1.922,1.922,0,0,0-20-34v8a1.922,1.922,0,0,0,.594,1.406A1.922,1.922,0,0,0-18-24h2V-36Zm38,2a1.922,1.922,0,0,0-.594-1.406A1.922,1.922,0,0,0,18-36H16v12h2a1.922,1.922,0,0,0,1.406-.594A1.922,1.922,0,0,0,20-26Z" transform="translate(1057 1801)" fill="gray"/></g></svg>