<svg xmlns="http://www.w3.org/2000/svg" width="64" height="65" viewBox="0 0 64 65"><g transform="translate(-443 -1737)"><rect width="64" height="65" transform="translate(443 1737)" fill="none"/><path d="M25.813-42.5a11.781,11.781,0,0,1,2.563,1.922,12.094,12.094,0,0,1,1.953,2.5,12.387,12.387,0,0,1,1.234,2.906A11.6,11.6,0,0,1,32-32H28a7.656,7.656,0,0,0-.641-3.094,8.194,8.194,0,0,0-1.719-2.547,8.194,8.194,0,0,0-2.547-1.719A7.656,7.656,0,0,0,20-40a7.622,7.622,0,0,0-3.109.641,8.245,8.245,0,0,0-2.531,1.719,8.194,8.194,0,0,0-1.719,2.547A7.656,7.656,0,0,0,12-32a11.815,11.815,0,0,1-1.3,5.406,11.886,11.886,0,0,1-3.578,4.25A16.165,16.165,0,0,1,10.8-19.8a16.293,16.293,0,0,1,2.8,3.375,16.06,16.06,0,0,1,1.781,4A15.7,15.7,0,0,1,16-8H12a11.53,11.53,0,0,0-.953-4.656,12.258,12.258,0,0,0-2.578-3.812,12.258,12.258,0,0,0-3.812-2.578A11.53,11.53,0,0,0,0-20a11.53,11.53,0,0,0-4.656.953,12.258,12.258,0,0,0-3.812,2.578,12.258,12.258,0,0,0-2.578,3.813A11.53,11.53,0,0,0-12-8h-4a15.7,15.7,0,0,1,.625-4.422,16.06,16.06,0,0,1,1.781-4A16.293,16.293,0,0,1-10.8-19.8a16.165,16.165,0,0,1,3.672-2.547,11.886,11.886,0,0,1-3.578-4.25A11.815,11.815,0,0,1-12-32a7.656,7.656,0,0,0-.641-3.094,8.194,8.194,0,0,0-1.719-2.547,8.194,8.194,0,0,0-2.547-1.719A7.656,7.656,0,0,0-20-40a7.622,7.622,0,0,0-3.109.641,8.245,8.245,0,0,0-2.531,1.719,8.194,8.194,0,0,0-1.719,2.547A7.656,7.656,0,0,0-28-32h-4a11.6,11.6,0,0,1,.438-3.172,12.387,12.387,0,0,1,1.234-2.906,12.094,12.094,0,0,1,1.953-2.5A11.781,11.781,0,0,1-25.812-42.5a8.007,8.007,0,0,1-1.609-2.531A7.887,7.887,0,0,1-28-48a7.656,7.656,0,0,1,.641-3.094,8.194,8.194,0,0,1,1.719-2.547,8.245,8.245,0,0,1,2.531-1.719A7.622,7.622,0,0,1-20-56a7.656,7.656,0,0,1,3.094.641,8.194,8.194,0,0,1,2.547,1.719,8.194,8.194,0,0,1,1.719,2.547A7.656,7.656,0,0,1-12-48a7.886,7.886,0,0,1-.578,2.969A8.007,8.007,0,0,1-14.187-42.5,11.666,11.666,0,0,1-10-38.625a12.172,12.172,0,0,1,4.328-3.937A11.679,11.679,0,0,1,0-44a11.679,11.679,0,0,1,5.672,1.438A12.172,12.172,0,0,1,10-38.625,11.666,11.666,0,0,1,14.188-42.5a8.007,8.007,0,0,1-1.609-2.531A7.887,7.887,0,0,1,12-48a7.656,7.656,0,0,1,.641-3.094,8.194,8.194,0,0,1,1.719-2.547,8.245,8.245,0,0,1,2.531-1.719A7.622,7.622,0,0,1,20-56a7.656,7.656,0,0,1,3.094.641,8.194,8.194,0,0,1,2.547,1.719,8.194,8.194,0,0,1,1.719,2.547A7.656,7.656,0,0,1,28-48a7.887,7.887,0,0,1-.578,2.969A8.007,8.007,0,0,1,25.813-42.5ZM-24-48a3.876,3.876,0,0,0,.313,1.563,4.065,4.065,0,0,0,.859,1.266,4.065,4.065,0,0,0,1.266.859A3.876,3.876,0,0,0-20-44a3.876,3.876,0,0,0,1.563-.312,4.065,4.065,0,0,0,1.266-.859,4.065,4.065,0,0,0,.859-1.266A3.876,3.876,0,0,0-16-48a3.876,3.876,0,0,0-.312-1.562,4.065,4.065,0,0,0-.859-1.266,4.065,4.065,0,0,0-1.266-.859A3.876,3.876,0,0,0-20-52a3.876,3.876,0,0,0-1.562.313,4.065,4.065,0,0,0-1.266.859,4.065,4.065,0,0,0-.859,1.266A3.876,3.876,0,0,0-24-48ZM0-24a7.656,7.656,0,0,0,3.094-.641,8.194,8.194,0,0,0,2.547-1.719,8.245,8.245,0,0,0,1.719-2.531A7.622,7.622,0,0,0,8-32a7.656,7.656,0,0,0-.641-3.094,8.194,8.194,0,0,0-1.719-2.547,8.194,8.194,0,0,0-2.547-1.719A7.656,7.656,0,0,0,0-40a7.622,7.622,0,0,0-3.109.641,8.245,8.245,0,0,0-2.531,1.719,8.194,8.194,0,0,0-1.719,2.547A7.656,7.656,0,0,0-8-32a7.622,7.622,0,0,0,.641,3.109,8.245,8.245,0,0,0,1.719,2.531,8.245,8.245,0,0,0,2.531,1.719A7.622,7.622,0,0,0,0-24ZM16-48a3.876,3.876,0,0,0,.313,1.563,4.065,4.065,0,0,0,.859,1.266,4.065,4.065,0,0,0,1.266.859A3.876,3.876,0,0,0,20-44a3.876,3.876,0,0,0,1.563-.312,4.065,4.065,0,0,0,1.266-.859,4.065,4.065,0,0,0,.859-1.266A3.876,3.876,0,0,0,24-48a3.876,3.876,0,0,0-.312-1.562,4.065,4.065,0,0,0-.859-1.266,4.065,4.065,0,0,0-1.266-.859A3.876,3.876,0,0,0,20-52a3.876,3.876,0,0,0-1.562.313,4.065,4.065,0,0,0-1.266.859,4.065,4.065,0,0,0-.859,1.266A3.876,3.876,0,0,0,16-48Z" transform="translate(475 1801)" fill="gray"/></g></svg>