<svg xmlns="http://www.w3.org/2000/svg" width="22.671" height="32" viewBox="0 0 22.671 32"><g transform="translate(-221.807 -89.47)"><path d="M223.87,234.663l-2.063-23.141h22.671l-2.065,23.137-9.284,2.574Z" transform="translate(0 -115.763)" fill="#e44d26"/><path d="M441.807,270.1l7.5-2.08,1.765-19.772h-9.267Z" transform="translate(-208.665 -150.595)" fill="#f16529"/><path d="M310.8,309.074h-3.756l-.259-2.906H310.8V303.33h-7.117l.068.761.7,7.821H310.8Zm0,7.371-.012,0-3.161-.854-.2-2.263h-2.849l.4,4.456,5.814,1.614.013,0Z" transform="translate(-77.657 -202.841)" fill="#ebebeb"/><path d="M262.745,89.47h1.442v1.425h1.319V89.47h1.442v4.315h-1.442V92.34h-1.319v1.445h-1.442Zm6.1,1.431h-1.27V89.47h3.982V90.9h-1.27v2.884h-1.442V90.9Zm3.345-1.431h1.5l.925,1.516.924-1.516h1.5v4.315h-1.437V91.646l-.992,1.534h-.025l-.993-1.534v2.139H272.19V89.47Zm5.576,0h1.443v2.889h2.028v1.426h-3.471Z" transform="translate(-38.829)"/><path d="M441.617,309.074v2.838h3.495l-.329,3.681-3.165.854V319.4l5.818-1.612.043-.48.667-7.472.069-.762h-6.6Zm0-5.744v2.838h6.855l.057-.638.129-1.439.068-.761Z" transform="translate(-208.484 -202.841)" fill="#fff"/></g></svg>