<svg xmlns="http://www.w3.org/2000/svg" xmlns:xlink="http://www.w3.org/1999/xlink" width="32.82" height="32" viewBox="0 0 32.82 32"><defs><radialGradient id="a" cx="-0.278" cy="-8.139" r="0.781" gradientTransform="translate(-0.007 -0.249) scale(0.973 0.968)" gradientUnits="objectBoundingBox"><stop offset="0" stop-color="#423325" stop-opacity="0.98"/><stop offset="1" stop-color="#1c0a00"/></radialGradient></defs><g transform="translate(0 -130.746)"><path d="M24.8,155.549H54.888v29.265H24.8Z" transform="translate(-23.435 -23.435)" fill="url(#a)"/><path d="M1.368,132.113H31.453v29.265H1.368ZM0,162.746H32.82v-32H0Zm21.5-20.595c0-.109.041-.164.164-.164h2.147c.109,0,.164.041.164.164v10.79c0,.109-.027.164-.164.164h-2.12c-.137,0-.178-.068-.178-.178V142.151Zm-.15-3.1a1.395,1.395,0,0,1,2.79,0,1.307,1.307,0,0,1-1.422,1.395A1.285,1.285,0,0,1,21.347,139.047Zm-6.154,7.6c-.383-1.518-1.285-4.827-1.627-6.427h-.027c-.287,1.6-1.012,4.308-1.586,6.427Zm-3.8,2.215-1.08,4.1c-.027.109-.068.137-.205.137H8.1c-.137,0-.164-.041-.137-.205l3.884-13.593a4.43,4.43,0,0,0,.137-1.135c0-.1.041-.137.109-.137h2.872c.1,0,.137.027.164.137l4.349,14.756c.027.109,0,.178-.109.178h-2.27c-.109,0-.178-.027-.205-.123l-1.121-4.116H11.391Z" transform="translate(0 0)" fill="#ff7f18"/></g></svg>