<svg xmlns="http://www.w3.org/2000/svg" width="22.984" height="32.353" viewBox="0 0 22.984 32.353"><path d="M22.984,489.9H0l2.155,23.365,9.336,2.648,9.336-2.648Z" transform="translate(0 -483.56)" fill="#e6a329"/><path d="M887.9,637v22.129l7.564-2.143L897.3,637Z" transform="translate(-876.41 -628.756)" fill="#f1bf22"/><path d="M404.04,858.5H392.41l-.81,8.748.017-.054H401.5l-.322,3.7-3.152.907-3.2-.921-.192-2.24h-2.9l.414,4.476,5.88,1.669,5.883-1.669.81-8.786H394.23l.135-2.927h7.276l.109,1.677h2.93Z" transform="translate(-386.532 -847.39)" fill="#fff"/><path d="M398.025,858.5H392.41l-.81,8.748.017-.054h6.408V864.34h-3.387l.135-2.927h3.252Zm-3.387,10.141h-2.91l.414,4.474,5.88,1.667V871.8l-3.2-.924Z" transform="translate(-386.532 -847.39)" fill="#ebebeb"/><path d="M559.146,2.894H557.1V4.362h3.51V0h-1.464Zm6.517-2.87H562.1V1.55c.476.476.725.705,1.426,1.4H562.1V4.338h3.567V2.948l-1.426-1.4h1.426Z" transform="translate(-549.89)" fill="#231f20"/></svg>