<svg xmlns="http://www.w3.org/2000/svg" width="24.825" height="25" viewBox="0 0 24.825 25"><g transform="translate(-0.663 -0.747)"><path d="M93.611,5.15a3.28,3.28,0,0,0-6.526-.464l-.033-.018a4.756,4.756,0,0,0-4.942.933l-5.976,6.006,2.361,2.274L83.3,9.156c2.246-2.246,3.469-.726,3.469-.726,1.691,1.429.058,3.12.058,3.12l2.42,2.332c1.976-2.134,2.091-4,1.49-5.479A3.28,3.28,0,0,0,93.611,5.15" transform="translate(-68.123 -1.014)" fill="#f9ae41"/><path d="M141.253,88.963l.018-.033a4.755,4.755,0,0,0-.933-4.942l-6.006-5.977-2.274,2.362,4.726,4.81c2.246,2.246.726,3.47.726,3.47-1.428,1.691-3.119.058-3.119.058l-2.332,2.42c2.134,1.976,4,2.091,5.478,1.49a3.28,3.28,0,1,0,3.717-3.658" transform="translate(-118.604 -69.742)" fill="#ee4035"/><path d="M15.78,133.04l-4.81,4.726c-2.246,2.246-3.469.726-3.469.726-1.691-1.429-.058-3.12-.058-3.12l-2.42-2.333c-1.976,2.134-2.091,4-1.49,5.478a3.28,3.28,0,1,0,3.658,3.717l.033.017a4.755,4.755,0,0,0,4.942-.933l5.977-6.006L15.78,133.04" transform="translate(0 -119.414)" fill="#4f91cd"/><path d="M8.174,11.053c-2.246-2.246-.726-3.47-.726-3.47,1.429-1.691,3.12-.058,3.12-.058L12.9,5.106c-2.134-1.976-4-2.091-5.478-1.49A3.28,3.28,0,1,0,3.7,7.274l-.017.033a4.755,4.755,0,0,0,.933,4.942l6.006,5.977L12.9,15.864l-4.726-4.81" transform="translate(-0.203)" fill="#7ac043"/></g></svg>