<svg xmlns="http://www.w3.org/2000/svg" width="32" height="32" viewBox="0 0 32 32"><g transform="translate(-648 -952)"><rect width="32" height="32" transform="translate(648 952)" fill="none"/><path d="M10.172-18,15.5-2H13.328L12-6H6L4.672-2H2.5L7.828-18ZM11.328-8,9-15,6.672-8Zm1.266-15.5q.016-1.078.023-2.141t-.023-2.141a.547.547,0,0,1,.031-.172.878.878,0,0,1,.2-.031l1.3.031q.648.016,1.3.016h4.3q0-.5-.008-1.031A4.511,4.511,0,0,0,19.594-30q1.078,0,2.141.094a1.51,1.51,0,0,1,.2.047.144.144,0,0,1,.1.156.416.416,0,0,1-.047.188,1.432,1.432,0,0,0-.078.188,1.133,1.133,0,0,0-.055.242q-.023.164-.031.344t-.008.344v.461h4.625q.656,0,1.3-.016l1.3-.031a.448.448,0,0,1,.2.047.3.3,0,0,1,.047.156q-.016.266-.031.555t-.016.555v.906q0,.563.016,1.133T29.3-23.5a.9.9,0,0,1-.008.109.156.156,0,0,1-.039.094.878.878,0,0,1-.2.031q-.078,0-.359.008t-.594.008q-.313,0-.57-.008a.578.578,0,0,1-.3-.055,3.909,3.909,0,0,1-.039-.555q-.008-.383,0-.812t.016-.828q.008-.4.008-.617H14.672q0,.078.008.313t.008.539v1.281q0,.289-.016.484a.5.5,0,0,1-.047.227.878.878,0,0,1-.2.031H12.828q-.172,0-.2-.047A.423.423,0,0,1,12.594-23.5Zm17.125,4.031a.878.878,0,0,1,.031.2v1.5a.855.855,0,0,1-.031.188.878.878,0,0,1-.2.031l-1.234-.031q-.609-.016-1.234-.016H22.031q-.016.938.008,1.883t.055,1.883a2.047,2.047,0,0,1-.125.781,1.282,1.282,0,0,1-.469.625,1.674,1.674,0,0,1-.617.242,6.82,6.82,0,0,1-.852.125q-.453.039-.883.047t-.68.008q-.094,0-.3-.008a.419.419,0,0,1-.281-.086.72.72,0,0,1-.109-.25q-.063-.2-.094-.281a5.872,5.872,0,0,0-.258-.758,5.441,5.441,0,0,0-.367-.711q.531.063,1.063.086t1.063.023a1.123,1.123,0,0,0,.57-.117q.2-.117.2-.523v-2.969H14.969q-.625,0-1.25.016l-1.25.031a.311.311,0,0,1-.187-.047.547.547,0,0,1-.031-.172v-1.5a1.1,1.1,0,0,1,.008-.117.167.167,0,0,1,.039-.1.548.548,0,0,1,.172-.031l1.25.031q.625.016,1.25.016h4.984q-.031-.406-.039-.82a4.817,4.817,0,0,0-.086-.82l.672.063.672.063q.547-.391,1.047-.828t1-.891H18.406q-.656,0-1.3.016l-1.3.031a.311.311,0,0,1-.187-.047.547.547,0,0,1-.031-.172v-1.484a.855.855,0,0,1,.031-.187.855.855,0,0,1,.188-.031l1.3.031q.648.016,1.3.016h5.828a1.523,1.523,0,0,0,.469-.07,1.294,1.294,0,0,1,.391-.07.69.69,0,0,1,.359.188,4.5,4.5,0,0,1,.469.438,4.541,4.541,0,0,1,.414.508.811.811,0,0,1,.18.383.3.3,0,0,1-.1.242,1.134,1.134,0,0,1-.227.148,2.125,2.125,0,0,0-.422.281l-.391.328q-.813.672-1.633,1.3t-1.711,1.211v.172h5.016q.625,0,1.234-.016l1.234-.031A.448.448,0,0,1,29.719-19.469Z" transform="translate(647.5 984)" fill="#6f2c91"/></g></svg>