<svg xmlns="http://www.w3.org/2000/svg" width="32" height="32" viewBox="0 0 32 32"><g transform="translate(-742 -951)"><rect width="32" height="32" transform="translate(742 951)" fill="none"/><path d="M18-32a5.881,5.881,0,0,0,.719,2.914,8.509,8.509,0,0,0,1.922,2.32,10.817,10.817,0,0,1,2.453,3.016A7.74,7.74,0,0,1,24-20H22a5.881,5.881,0,0,0-.719-2.914,8.509,8.509,0,0,0-1.922-2.32,9.469,9.469,0,0,1-.711-.656q-.336-.344-.648-.719V-4.5a1.473,1.473,0,0,1-.047.336q-.047.2-.109.4a3.183,3.183,0,0,1-.148.391q-.086.188-.148.313a5,5,0,0,1-1,1.328A5.921,5.921,0,0,1,15.2-.773,6.686,6.686,0,0,1,13.641-.2,7.128,7.128,0,0,1,12,0,6.942,6.942,0,0,1,9.867-.344a6.556,6.556,0,0,1-1.93-.984,5.178,5.178,0,0,1-1.4-1.57A4.112,4.112,0,0,1,6-5a4.112,4.112,0,0,1,.539-2.1,5.178,5.178,0,0,1,1.4-1.57,6.556,6.556,0,0,1,1.93-.984A6.942,6.942,0,0,1,12-10a7.071,7.071,0,0,1,2.109.32A6.047,6.047,0,0,1,16-8.7V-32ZM12-2a5.215,5.215,0,0,0,1.344-.187,4.662,4.662,0,0,0,1.3-.562,3.292,3.292,0,0,0,.977-.937A2.276,2.276,0,0,0,16-5a2.276,2.276,0,0,0-.383-1.312,3.292,3.292,0,0,0-.977-.937,4.662,4.662,0,0,0-1.3-.562A5.215,5.215,0,0,0,12-8a5.215,5.215,0,0,0-1.344.188,4.662,4.662,0,0,0-1.3.563,3.292,3.292,0,0,0-.977.938A2.276,2.276,0,0,0,8-5a2.276,2.276,0,0,0,.383,1.313,3.292,3.292,0,0,0,.977.938,4.662,4.662,0,0,0,1.3.563A5.215,5.215,0,0,0,12-2Z" transform="translate(743 983)" fill="#6f2c91"/></g></svg>