<svg xmlns="http://www.w3.org/2000/svg" xmlns:xlink="http://www.w3.org/1999/xlink" width="32.821" height="32" viewBox="0 0 32.821 32"><defs><radialGradient id="a" cx="-0.288" cy="-8.277" r="0.781" gradientTransform="translate(-0.007 -0.254) scale(0.973 0.968)" gradientUnits="objectBoundingBox"><stop offset="0" stop-color="#34364e" stop-opacity="0.98"/><stop offset="1" stop-color="#0c0824"/></radialGradient></defs><g transform="translate(0 -130.746)"><path d="M24.8,155.549H54.889v29.265H24.8Z" transform="translate(-23.435 -23.435)" fill="url(#a)"/><path d="M1.368,132.113H31.453v29.265H1.368ZM0,162.746H32.821v-32H0Zm22.127-18.872c-1.08,0-1.45.547-1.45,1,0,.492.246.834,1.7,1.586,2.147,1.039,2.817,2.038,2.817,3.5,0,2.188-1.668,3.364-3.925,3.364a5.95,5.95,0,0,1-2.8-.588c-.1-.041-.109-.109-.109-.219v-2.01c0-.137.068-.178.164-.109a5.076,5.076,0,0,0,2.749.807c1.08,0,1.532-.451,1.532-1.067,0-.492-.315-.93-1.7-1.641-1.942-.93-2.749-1.873-2.749-3.446,0-1.764,1.381-3.227,3.774-3.227a6.288,6.288,0,0,1,2.448.383.3.3,0,0,1,.137.273v1.873c0,.109-.068.178-.205.137a4.619,4.619,0,0,0-2.379-.615ZM10.366,145.5c.315.027.561.027,1.108.027,1.6,0,3.1-.561,3.1-2.735,0-1.737-1.08-2.612-2.9-2.612-.547,0-1.067.027-1.313.041ZM7.932,138.24c0-.1.191-.164.3-.164.875-.041,2.174-.068,3.528-.068,3.788,0,5.265,2.079,5.265,4.732,0,3.473-2.516,4.964-5.607,4.964-.52,0-.7-.027-1.067-.027v5.251c0,.109-.041.164-.164.164H8.1c-.109,0-.164-.041-.164-.164V138.24Z" fill="#31c5f0"/></g></svg>