<svg xmlns="http://www.w3.org/2000/svg" width="64" height="65" viewBox="0 0 64 65"><g transform="translate(-637 -1737)"><rect width="64" height="65" transform="translate(637 1737)" fill="none"/><path d="M-2.062-22.5a22.227,22.227,0,0,1,5.75,3.328,22.11,22.11,0,0,1,4.438,4.766,22.4,22.4,0,0,1,2.859,5.844A21.291,21.291,0,0,1,12-2V0H8V-2A17.414,17.414,0,0,0,6.578-9a18.277,18.277,0,0,0-3.859-5.719A18.277,18.277,0,0,0-3-18.578,17.414,17.414,0,0,0-10-20a17.414,17.414,0,0,0-7,1.422,18.277,18.277,0,0,0-5.719,3.859A18.277,18.277,0,0,0-26.578-9,17.414,17.414,0,0,0-28-2V0h-4V-2a21.291,21.291,0,0,1,1.016-6.562,22.4,22.4,0,0,1,2.859-5.844,22.109,22.109,0,0,1,4.438-4.766,22.227,22.227,0,0,1,5.75-3.328,13.693,13.693,0,0,1-2.531-2.25,14.213,14.213,0,0,1-1.906-2.766,14.369,14.369,0,0,1-1.2-3.125A13.435,13.435,0,0,1-24-34a13.505,13.505,0,0,1,1.109-5.453,14.262,14.262,0,0,1,3-4.437,14.262,14.262,0,0,1,4.438-3A13.505,13.505,0,0,1-10-48a13.505,13.505,0,0,1,5.453,1.109,14.263,14.263,0,0,1,4.438,3,14.262,14.262,0,0,1,3,4.438A13.505,13.505,0,0,1,4-34a13.435,13.435,0,0,1-.422,3.359,14.369,14.369,0,0,1-1.2,3.125A14.213,14.213,0,0,1,.469-24.75,13.693,13.693,0,0,1-2.062-22.5ZM-10-24a9.684,9.684,0,0,0,3.875-.781,10.084,10.084,0,0,0,3.172-2.141A10.254,10.254,0,0,0-.8-30.109,9.63,9.63,0,0,0,0-34a9.521,9.521,0,0,0-.8-3.875,10.306,10.306,0,0,0-2.156-3.172A10.306,10.306,0,0,0-6.125-43.2,9.521,9.521,0,0,0-10-44a9.63,9.63,0,0,0-3.891.8,10.254,10.254,0,0,0-3.187,2.156,10.084,10.084,0,0,0-2.141,3.172A9.684,9.684,0,0,0-20-34a9.8,9.8,0,0,0,.781,3.891,10.036,10.036,0,0,0,2.141,3.188,10.036,10.036,0,0,0,3.188,2.141A9.8,9.8,0,0,0-10-24ZM32-64v32H24L12-20V-32H8v-4h8v6.344L22.344-36H28V-60H-12v7.188q-1,.125-2.016.328A14.33,14.33,0,0,0-16-51.937V-64Z" transform="translate(669 1801)" fill="gray"/></g></svg>