<svg xmlns="http://www.w3.org/2000/svg" width="22.43" height="22.43" viewBox="0 0 22.43 22.43"><path d="M12-16.5a4.373,4.373,0,0,0-1.752.352,4.554,4.554,0,0,0-1.43.967,4.536,4.536,0,0,0-.967,1.436A4.386,4.386,0,0,0,7.5-12a4.373,4.373,0,0,0,.352,1.752,4.554,4.554,0,0,0,.967,1.43,4.554,4.554,0,0,0,1.43.967A4.373,4.373,0,0,0,12-7.5a4.386,4.386,0,0,0,1.746-.352,4.536,4.536,0,0,0,1.436-.967,4.554,4.554,0,0,0,.967-1.43A4.373,4.373,0,0,0,16.5-12a4.589,4.589,0,0,0-.258-1.5h1.57a6.325,6.325,0,0,1,.141.75A6.041,6.041,0,0,1,18-12a5.777,5.777,0,0,1-.475,2.332,6.121,6.121,0,0,1-1.289,1.9,6.121,6.121,0,0,1-1.9,1.289A5.777,5.777,0,0,1,12-6a5.777,5.777,0,0,1-2.332-.475,6.121,6.121,0,0,1-1.9-1.289,6.039,6.039,0,0,1-1.283-1.9A5.839,5.839,0,0,1,6.012-12a5.839,5.839,0,0,1,.469-2.332,6.039,6.039,0,0,1,1.283-1.9,6.121,6.121,0,0,1,1.9-1.289A5.777,5.777,0,0,1,12-18a6.041,6.041,0,0,1,.75.047,6.326,6.326,0,0,1,.75.141v1.57A4.589,4.589,0,0,0,12-16.5Zm10.148,1.816A10.416,10.416,0,0,1,22.5-12a10.292,10.292,0,0,1-.375,2.783,10.5,10.5,0,0,1-1.061,2.508,10.58,10.58,0,0,1-1.646,2.127,10.58,10.58,0,0,1-2.127,1.646,10.5,10.5,0,0,1-2.508,1.061A10.292,10.292,0,0,1,12-1.5a10.292,10.292,0,0,1-2.783-.375A10.5,10.5,0,0,1,6.709-2.936,10.58,10.58,0,0,1,4.582-4.582,10.58,10.58,0,0,1,2.936-6.709a10.526,10.526,0,0,1-1.061-2.5A10.272,10.272,0,0,1,1.5-12a10.292,10.292,0,0,1,.375-2.783,10.5,10.5,0,0,1,1.061-2.508,10.58,10.58,0,0,1,1.646-2.127,10.58,10.58,0,0,1,2.127-1.646,10.526,10.526,0,0,1,2.5-1.061A10.272,10.272,0,0,1,12-22.5a10.416,10.416,0,0,1,2.684.352L13.5-20.965v.094q-.375-.059-.75-.094T12-21a8.807,8.807,0,0,0-2.391.322,9.122,9.122,0,0,0-2.15.908,8.971,8.971,0,0,0-1.822,1.406A8.971,8.971,0,0,0,4.23-16.541a9.122,9.122,0,0,0-.908,2.15A8.807,8.807,0,0,0,3-12a8.807,8.807,0,0,0,.322,2.391,9.122,9.122,0,0,0,.908,2.15A8.971,8.971,0,0,0,5.637-5.637,8.971,8.971,0,0,0,7.459-4.23a9.122,9.122,0,0,0,2.15.908A8.807,8.807,0,0,0,12-3a8.807,8.807,0,0,0,2.391-.322,9.122,9.122,0,0,0,2.15-.908,8.971,8.971,0,0,0,1.822-1.406A8.971,8.971,0,0,0,19.77-7.459a9.122,9.122,0,0,0,.908-2.15A8.807,8.807,0,0,0,21-12q0-.375-.035-.75t-.094-.75h.094ZM15-16.066V-19.43l4.5-4.5v4.43h4.43L19.43-15H16.066l-2.613,2.613A1.5,1.5,0,0,1,13.5-12a1.454,1.454,0,0,1-.117.586,1.524,1.524,0,0,1-.322.475,1.524,1.524,0,0,1-.475.322A1.454,1.454,0,0,1,12-10.5a1.454,1.454,0,0,1-.586-.117,1.524,1.524,0,0,1-.475-.322,1.524,1.524,0,0,1-.322-.475A1.454,1.454,0,0,1,10.5-12a1.454,1.454,0,0,1,.117-.586,1.524,1.524,0,0,1,.322-.475,1.524,1.524,0,0,1,.475-.322A1.454,1.454,0,0,1,12-13.5a1.5,1.5,0,0,1,.387.047Zm1.5-.434h2.309l1.5-1.5H18v-2.309l-1.5,1.5Z" transform="translate(-1.5 23.93)" fill="#6f2c91"/></svg>