<svg xmlns="http://www.w3.org/2000/svg" width="32" height="32" viewBox="0 0 32 32"><g transform="translate(-793 -952)"><rect width="32" height="32" transform="translate(793 952)" fill="none"/><path d="M10-20h2v2H10Zm8,0h2v2H18Zm7.328,10a2.555,2.555,0,0,1,1.031.211,2.739,2.739,0,0,1,.852.578,2.739,2.739,0,0,1,.578.852A2.555,2.555,0,0,1,28-7.328V0H26V-7.328a.648.648,0,0,0-.2-.477.648.648,0,0,0-.477-.2H4.672a.648.648,0,0,0-.477.2.648.648,0,0,0-.2.477V0H2V-7.328a2.555,2.555,0,0,1,.211-1.031,2.809,2.809,0,0,1,.57-.852,2.623,2.623,0,0,1,.852-.578A2.61,2.61,0,0,1,4.672-10H10v-2H8.672a2.61,2.61,0,0,1-1.039-.211,2.687,2.687,0,0,1-.852-.57,2.687,2.687,0,0,1-.57-.852A2.61,2.61,0,0,1,6-14.672V-16H4v-4H6v-1.328a2.555,2.555,0,0,1,.211-1.031,2.809,2.809,0,0,1,.57-.852,2.623,2.623,0,0,1,.852-.578A2.61,2.61,0,0,1,8.672-24H14v-3.266A2.006,2.006,0,0,1,13.273-28,1.953,1.953,0,0,1,13-29a1.938,1.938,0,0,1,.156-.781,2.033,2.033,0,0,1,.43-.633,2.033,2.033,0,0,1,.633-.43A1.938,1.938,0,0,1,15-31a1.938,1.938,0,0,1,.781.156,2.033,2.033,0,0,1,.633.43,2.033,2.033,0,0,1,.43.633A1.938,1.938,0,0,1,17-29a1.953,1.953,0,0,1-.273,1,2.006,2.006,0,0,1-.727.734V-24h5.328a2.555,2.555,0,0,1,1.031.211,2.739,2.739,0,0,1,.852.578,2.739,2.739,0,0,1,.578.852A2.555,2.555,0,0,1,24-21.328V-20h2v4H24v1.328a2.61,2.61,0,0,1-.211,1.039,2.623,2.623,0,0,1-.578.852,2.809,2.809,0,0,1-.852.57A2.555,2.555,0,0,1,21.328-12H20v2ZM8-14.672a.648.648,0,0,0,.2.477.648.648,0,0,0,.477.2H21.328a.648.648,0,0,0,.477-.2.648.648,0,0,0,.2-.477v-6.656a.648.648,0,0,0-.2-.477.648.648,0,0,0-.477-.2H8.672a.648.648,0,0,0-.477.2.648.648,0,0,0-.2.477ZM12-10h6v-2H12Z" transform="translate(794 983)" fill="#6f2c91"/></g></svg>