<svg xmlns="http://www.w3.org/2000/svg" width="32" height="32" viewBox="0 0 32 32"><path d="M32,16A16,16,0,1,1,16,0,16,16,0,0,1,32,16Z" fill="#37aee2"/><path d="M.384,28.482,5.4,30.352l1.94,6.239a.59.59,0,0,0,.937.282L11.067,34.6a.834.834,0,0,1,1.016-.028l5.039,3.658a.591.591,0,0,0,.925-.357l3.691-17.756a.591.591,0,0,0-.791-.671L.378,27.376A.591.591,0,0,0,.384,28.482Zm6.639.875,9.8-6.033a.171.171,0,0,1,.206.27L8.941,31.108a1.676,1.676,0,0,0-.519,1l-.275,2.041a.253.253,0,0,1-.494.036L6.593,30.466A.986.986,0,0,1,7.024,29.356Z" transform="translate(3.844 -12.15)" fill="#fff"/></svg>