<svg xmlns="http://www.w3.org/2000/svg" width="32" height="32" viewBox="0 0 32 32"><defs><style>.a{fill:#7b519d;}.b{fill:#fff;fill-rule:evenodd;}</style></defs><circle class="a" cx="16" cy="16" r="16"/><path class="b" d="M77.207,69.821c-.582-.469-1.2-.89-1.817-1.32-1.222-.858-2.339-.925-3.251.456a1.422,1.422,0,0,1-1.978.469,8.766,8.766,0,0,1-4.6-4.48,1.725,1.725,0,0,1,.559-2.419,1.716,1.716,0,0,0,.987-1.518c-.054-.99-2.458-4.3-3.407-4.648a1.727,1.727,0,0,0-1.184,0,3.339,3.339,0,0,0-2.265,4.747A24.635,24.635,0,0,0,73.906,74.824a6.3,6.3,0,0,0,.973.275,4.436,4.436,0,0,0,3.646-2.774C79,70.988,78,70.458,77.207,69.821Zm-7.155-12.8c4.665.717,6.817,2.936,7.411,7.634.055.434-.107,1.087.513,1.1.647.012.491-.631.5-1.066a8.869,8.869,0,0,0-8.285-8.679c-.338.049-1.038-.233-1.081.525C69.076,57.048,69.665,56.964,70.052,57.024Z" transform="translate(-53.925 -49.23)"/><path class="b" d="M268.076,102.86c-.449-.054-1.041-.265-1.146.357-.109.654.551.587.975.682,2.881.644,3.885,1.693,4.359,4.551.069.417-.068,1.065.64.958.525-.08.335-.636.379-.961A5.876,5.876,0,0,0,268.076,102.86Z" transform="translate(-251.037 -93.778)"/><path class="b" d="M281.835,151.406c-.3.007-.593.04-.7.36-.165.478.182.592.537.649a2.1,2.1,0,0,1,1.922,2.065c.032.32.235.579.544.543.428-.051.467-.432.454-.794A3.114,3.114,0,0,0,281.835,151.406Z" transform="translate(-264.531 -140.08)"/></svg>