<svg xmlns="http://www.w3.org/2000/svg" xmlns:xlink="http://www.w3.org/1999/xlink" width="25" height="25" viewBox="0 0 25 25"><defs><clipPath id="a"><path d="M0,0H25V25H0Z"/></clipPath></defs><g clip-path="url(#a)"><path d="M165.36,38.774h-4.337v.46c1.357,0,1.575.291,1.575,2.011v3.1c0,1.72-.218,2.035-1.575,2.035a4.423,4.423,0,0,1-2.714-1.769L157.194,43.4a2.435,2.435,0,0,0,2.3-2.278c0-1.332-1.139-2.35-3.271-2.35H151.96v.46c1.357,0,1.575.291,1.575,2.011v3.1c0,1.72-.218,2.035-1.575,2.035v.46h4.822v-.46c-1.356,0-1.575-.315-1.575-2.035v-.872h.412l2.69,3.368h7.051c3.464,0,4.967-1.841,4.967-4.047S168.824,38.774,165.36,38.774Zm-10.152,3.949V39.5h.993a1.612,1.612,0,0,1,0,3.222Zm10.225,3.368h-.169c-.872,0-.993-.218-.993-1.332V39.5h1.163c2.52,0,2.98,1.841,2.98,3.271C168.412,44.25,167.952,46.092,165.432,46.092ZM138.465,43.62l1.672-4.944c.485-1.429.267-1.841-1.284-1.841v-.485h4.555v.485c-1.526,0-1.89.363-2.5,2.132l-2.763,8.287h-.315l-2.472-7.584-2.52,7.584h-.315l-2.69-8.287c-.581-1.769-.969-2.132-2.375-2.132v-.485h5.379v.485c-1.43,0-1.817.339-1.309,1.841l1.623,4.943,2.447-7.269h.461Zm8.238,3.537a4.637,4.637,0,0,1-4.846-4.362,4.876,4.876,0,0,1,9.692,0A4.636,4.636,0,0,1,146.7,47.158Zm0-7.947c-2.229,0-3,2.011-3,3.586,0,1.6.776,3.586,3,3.586,2.254,0,3.029-1.987,3.029-3.586C149.732,41.221,148.956,39.21,146.7,39.21Z" transform="translate(-101.456 -28.934)" fill="#00749a"/><path d="M345.218,46.358v.485H339.67v-.485c1.624,0,1.913-.412,1.913-2.835V39.646c0-2.423-.29-2.811-1.913-2.811V36.35h5.015c2.495,0,3.877,1.284,3.877,3,0,1.672-1.382,2.98-3.877,2.98H343.3v1.187C343.3,45.946,343.595,46.358,345.218,46.358Zm-.533-9.135H343.3v4.216h1.381a1.894,1.894,0,0,0,1.987-2.084A1.92,1.92,0,0,0,344.686,37.222Zm20.523,7.342-.122.436c-.217.8-.484,1.09-2.2,1.09h-.339c-1.26,0-1.479-.291-1.479-2.011V42.966c1.891,0,2.035.169,2.035,1.43h.461V40.785H363.1c0,1.26-.145,1.43-2.035,1.43V39.5H362.4c1.721,0,1.988.291,2.206,1.09l.121.46h.388l-.169-2.278h-7.124v.46c1.356,0,1.576.291,1.576,2.011v3.1c0,1.574-.186,1.97-1.256,2.027a4.468,4.468,0,0,1-2.67-1.76L354.353,43.4a2.435,2.435,0,0,0,2.3-2.278c0-1.332-1.14-2.35-3.271-2.35H349.12v.46c1.357,0,1.575.291,1.575,2.011v3.1c0,1.72-.218,2.036-1.575,2.036v.46h4.822v-.46c-1.357,0-1.575-.315-1.575-2.036v-.872h.412l2.69,3.368h9.958l.145-2.277Zm-12.842-1.842V39.5h.993a1.612,1.612,0,0,1,0,3.222Zm17.759,4.434a3.582,3.582,0,0,1-2.18-.824,1.75,1.75,0,0,0-.388.824H367.1V43.813h.485a2.688,2.688,0,0,0,2.737,2.544,1.247,1.247,0,0,0,1.405-1.163c0-.63-.557-1.115-1.55-1.575l-1.381-.654a2.638,2.638,0,0,1-1.7-2.326,2.38,2.38,0,0,1,2.594-2.156,3.031,3.031,0,0,1,1.889.63,1.364,1.364,0,0,0,.316-.655h.461v2.859h-.51c-.169-1.139-.8-2.084-2.084-2.084-.677,0-1.308.387-1.308.994,0,.63.508.969,1.672,1.5l1.332.654a2.529,2.529,0,0,1,1.624,2.181A2.737,2.737,0,0,1,370.126,47.157Zm7.463,0a3.582,3.582,0,0,1-2.18-.824,1.75,1.75,0,0,0-.388.824h-.461V43.813h.485a2.688,2.688,0,0,0,2.737,2.544c.777,0,1.407-.436,1.407-1.163,0-.63-.558-1.115-1.552-1.575l-1.381-.654a2.638,2.638,0,0,1-1.7-2.326,2.38,2.38,0,0,1,2.594-2.156,3.031,3.031,0,0,1,1.889.63,1.35,1.35,0,0,0,.314-.655h.461v2.859h-.508c-.169-1.139-.8-2.084-2.084-2.084-.677,0-1.308.387-1.308.994,0,.63.508.969,1.671,1.5l1.334.654a2.527,2.527,0,0,1,1.622,2.181A2.736,2.736,0,0,1,377.589,47.157Z" transform="translate(-270.363 -28.933)" fill="#464342"/><g transform="translate(0 0)"><path d="M8.708,19.431a10.725,10.725,0,0,0,6.043,9.651L9.636,15.067A10.682,10.682,0,0,0,8.708,19.431ZM26.67,18.89a5.646,5.646,0,0,0-.884-2.957,5.019,5.019,0,0,1-1.053-2.515,1.857,1.857,0,0,1,1.8-1.9c.048,0,.093.006.139.009a10.721,10.721,0,0,0-16.2,2.018c.252.008.489.013.69.013,1.122,0,2.858-.136,2.858-.136a.443.443,0,0,1,.069.883s-.581.068-1.228.1l3.9,11.615,2.347-7.038L17.442,14.4c-.577-.034-1.124-.1-1.124-.1a.443.443,0,0,1,.068-.883s1.771.136,2.825.136c1.121,0,2.858-.136,2.858-.136a.443.443,0,0,1,.069.883s-.582.068-1.227.1L24.784,25.93l1.069-3.574A12.947,12.947,0,0,0,26.67,18.89Z" transform="translate(-6.931 -6.931)" fill="#00749a"/><path d="M49.633,42.129l-3.217,9.349a10.727,10.727,0,0,0,6.59-.171.894.894,0,0,1-.076-.148Zm9.221-6.083a8.222,8.222,0,0,1,.072,1.1,10.117,10.117,0,0,1-.815,3.841l-3.275,9.47a10.725,10.725,0,0,0,4.019-14.414Z" transform="translate(-36.945 -28.691)" fill="#00749a"/><path d="M12.5,0A12.5,12.5,0,1,0,25,12.5,12.514,12.514,0,0,0,12.5,0Zm0,24.427A11.927,11.927,0,1,1,24.426,12.5,11.941,11.941,0,0,1,12.5,24.427Z" transform="translate(0 0)" fill="#00749a"/></g></g></svg>