<svg xmlns="http://www.w3.org/2000/svg" width="32" height="32" viewBox="0 0 32 32"><circle cx="16" cy="16" r="16" fill="#1769ff"/><path d="M356.823,683.6a9.058,9.058,0,0,1,1.889.183,4.055,4.055,0,0,1,1.462.6,2.794,2.794,0,0,1,.945,1.107,3.885,3.885,0,0,1,.335,1.707,3.18,3.18,0,0,1-.5,1.828,3.613,3.613,0,0,1-1.472,1.2,3.489,3.489,0,0,1,2,1.351,4.436,4.436,0,0,1,.234,4.226,3.688,3.688,0,0,1-1.148,1.31,5.073,5.073,0,0,1-1.645.751,7.424,7.424,0,0,1-1.9.243H350V683.6Zm-.406,5.87a2.3,2.3,0,0,0,1.4-.406,1.53,1.53,0,0,0,.548-1.32,1.687,1.687,0,0,0-.183-.832,1.349,1.349,0,0,0-.488-.508,2.061,2.061,0,0,0-.7-.254,4.666,4.666,0,0,0-.823-.07H353.19v3.393Zm.183,6.154a4.269,4.269,0,0,0,.893-.091,2.2,2.2,0,0,0,.751-.3,1.545,1.545,0,0,0,.518-.579,2,2,0,0,0,.193-.935,1.874,1.874,0,0,0-.63-1.594,2.684,2.684,0,0,0-1.665-.478H353.19v3.982Zm9.556-.3a2.956,2.956,0,0,0,3.371.193,1.808,1.808,0,0,0,.772-.924h2.538a4.815,4.815,0,0,1-1.869,2.7,5.5,5.5,0,0,1-3.046.813,6,6,0,0,1-2.233-.4A4.646,4.646,0,0,1,364,696.579a5.054,5.054,0,0,1-1.066-1.746,6.419,6.419,0,0,1-.375-2.234,6.124,6.124,0,0,1,.385-2.193,5.076,5.076,0,0,1,2.793-2.924,5.442,5.442,0,0,1,2.184-.426,4.992,4.992,0,0,1,2.336.518,4.664,4.664,0,0,1,1.634,1.392,5.723,5.723,0,0,1,.924,1.991,7.436,7.436,0,0,1,.2,2.336h-7.574A2.907,2.907,0,0,0,366.156,695.32Zm3.26-5.524a2.027,2.027,0,0,0-1.574-.568,2.511,2.511,0,0,0-1.147.233,2.187,2.187,0,0,0-.731.579,2.112,2.112,0,0,0-.385.731,3.286,3.286,0,0,0-.132.69h4.691A3.356,3.356,0,0,0,369.416,689.8Zm-4.463-5.459h5.861v1.626h-5.861Z" transform="translate(-345.519 -674.851)" fill="#fff"/></svg>