<svg xmlns="http://www.w3.org/2000/svg" width="24" height="13.5" viewBox="0 0 24 13.5"><path d="M8.672-11.379a6.062,6.062,0,0,1,1.377.955A6.11,6.11,0,0,1,11.1-9.158a6.022,6.022,0,0,1,.668,1.5A5.886,5.886,0,0,1,12-6H10.5a4.324,4.324,0,0,0-.357-1.746,4.6,4.6,0,0,0-.967-1.43,4.6,4.6,0,0,0-1.43-.967A4.324,4.324,0,0,0,6-10.5a4.324,4.324,0,0,0-1.746.357,4.6,4.6,0,0,0-1.43.967,4.6,4.6,0,0,0-.967,1.43A4.324,4.324,0,0,0,1.5-6H0A5.886,5.886,0,0,1,.234-7.658,6.022,6.022,0,0,1,.9-9.158a6.11,6.11,0,0,1,1.049-1.266,6.062,6.062,0,0,1,1.377-.955,4.457,4.457,0,0,1-1.342-1.594A4.431,4.431,0,0,1,1.5-15a4.324,4.324,0,0,1,.357-1.746,4.6,4.6,0,0,1,.967-1.43,4.6,4.6,0,0,1,1.43-.967A4.324,4.324,0,0,1,6-19.5a4.324,4.324,0,0,1,1.746.357,4.6,4.6,0,0,1,1.43.967,4.6,4.6,0,0,1,.967,1.43A4.324,4.324,0,0,1,10.5-15a4.431,4.431,0,0,1-.486,2.027A4.457,4.457,0,0,1,8.672-11.379ZM3-15a2.858,2.858,0,0,0,.24,1.166,3.092,3.092,0,0,0,.645.949,3.092,3.092,0,0,0,.949.645A2.858,2.858,0,0,0,6-12a2.871,2.871,0,0,0,1.16-.24,3.073,3.073,0,0,0,.955-.645,3.092,3.092,0,0,0,.645-.949A2.858,2.858,0,0,0,9-15a2.871,2.871,0,0,0-.24-1.16,3.073,3.073,0,0,0-.645-.955,3.073,3.073,0,0,0-.955-.645A2.871,2.871,0,0,0,6-18a2.858,2.858,0,0,0-1.166.24,3.092,3.092,0,0,0-.949.645,3.073,3.073,0,0,0-.645.955A2.871,2.871,0,0,0,3-15Zm21-4.5V-18H13.5v-1.5Zm-10.5,6H24V-12H13.5Zm0,6H24V-6H13.5Z" transform="translate(0 19.5)" fill="gray"/></svg>