<svg xmlns="http://www.w3.org/2000/svg" width="24" height="24" viewBox="0 0 24 24"><g transform="translate(2355 3823)" fill="none"><path d="M-2343-3799a12.18,12.18,0,0,0,12-12,12.183,12.183,0,0,0-12-12,12.092,12.092,0,0,0-12,12A12.089,12.089,0,0,0-2343-3799Z" stroke="none"/><path d="M -2343 -3801 C -2340.29541015625 -3801 -2337.75537109375 -3802.106201171875 -2335.84814453125 -3804.114990234375 C -2334.0380859375 -3806.021240234375 -2333 -3808.53076171875 -2333 -3811 C -2333 -3813.468505859375 -2334.03857421875 -3815.97802734375 -2335.849609375 -3817.884765625 C -2337.757568359375 -3819.8935546875 -2340.296875 -3821 -2343 -3821 C -2345.720458984375 -3821 -2348.26171875 -3819.91015625 -2350.15576171875 -3817.931396484375 C -2351.96337890625 -3816.04296875 -2353 -3813.5166015625 -2353 -3811 C -2353 -3808.482666015625 -2351.9638671875 -3805.956298828125 -2350.1572265625 -3804.068359375 C -2348.263916015625 -3802.089599609375 -2345.721923828125 -3801 -2343 -3801 M -2343 -3799 C -2349.939453125 -3799 -2355 -3804.828369140625 -2355 -3811 C -2355 -3817.171630859375 -2349.934814453125 -3823 -2343 -3823 C -2336.065185546875 -3823 -2331 -3817.0322265625 -2331 -3811 C -2331 -3804.9677734375 -2336.060546875 -3799 -2343 -3799 Z" stroke="none" fill="gray"/></g></svg>