<svg xmlns="http://www.w3.org/2000/svg" xmlns:xlink="http://www.w3.org/1999/xlink" width="86" height="86" viewBox="0 0 86 86"><defs><clipPath id="a"><path d="M43.493,86H0V42.506H42.5V0H86V86Z" fill="#fff" stroke="#707070" stroke-width="3"/></clipPath></defs><g transform="translate(-846 -639)"><g transform="translate(-634 -139)"><g transform="translate(1504.057 809)"><g transform="translate(0.032 0.054)"><path d="M46.769,350.434v23.928l0,0H8.6V350.434Z" transform="translate(-8.597 -350.434)" fill="#2e4593"/></g><g transform="translate(0.032)"><g transform="translate(0 0.007)"><path d="M46.769,371.876v2.492l0,0H42.792l-11.715-7.346-1.173-.735-1.384-.869-.464-.291-1.407-.881-.525-.332-.441-.273-.886-.554-.286-.182-.432-.269-4.16-2.613-1.871-1.172L8.6,352.934V350.44l.032-.047.075.047h3.865l11.941,7.485,1.172.737.314.195,1.872,1.172.187.119.718.45,1.131.708.192.123.98.614.957.6L34.6,364.25l1.872,1.172Z" transform="translate(-8.597 -350.393)" fill="#fcf5ff"/></g><path d="M46.772,374.3l.008.087-2.554-.013-13.151-8.244-1.121-.706-.052-.031-1.131-.708-.685-.433-1.248-.782-1.158-.722-.164-.105-.722-.455-.286-.177-3.157-1.981-1.867-1.172L8.6,352.029v-1.643l.032.007.075.047,13.428,8.417L24,360.029l.511.32,1.172.737.441.276.718.451,1.323.829,1.74,1.089.192.123.637.4.344.217,1.524.955Z" transform="translate(-8.597 -350.387)" fill="#f42525"/></g><g transform="translate(0.032 0.054)"><path d="M46.769,350.906v2.49l-8.7,5.454L36.2,360.022l-4.164,2.613-.957.6-.98.616-.192.121-.441.276-.689.433-.718.448-.464.291-1.909,1.2-1.172.737-11.2,7.016H8.6v-2.026l11.045-6.924,1.867-1.172,2.57-1.609.432-.271.286-.184.886-.553.441-.271,1.932-1.215.188-.119,1.661-1.04.211-.132.961-.6,12.466-7.814h2.926Z" transform="translate(-8.597 -350.434)" fill="#fcf5ff"/><path d="M46.67,351.03,34.195,358.85l-1.871,1.172-1.248.784-.98.616-.192.121-1.74,1.091-1.323.827-.718.45-.441.276-.089.056-1.083.681-.788.491-14.267,8.95H8.6v-1.121l12.48-7.83,1.871-1.172,1.562-.979.286-.179.722-.45.164-.108,1.158-.722,1.932-1.215.905-.569.225-.139,1.173-.737.473-.3,13.422-8.417h1.8l0,.524Z" transform="translate(-8.597 -350.434)" fill="#f42525"/></g><g transform="translate(0 8.471)"><rect width="38.223" height="6.566" fill="#fff"/></g><g transform="translate(0 9.643)"><rect width="38.223" height="4.222" fill="#f42525"/></g><g transform="translate(17.118 0.054)"><g transform="translate(0)"><rect width="4.221" height="23.933" fill="#cd002a"/></g></g><g transform="translate(15.936 0.054)"><g transform="translate(0)"><path d="M27.851,365.416h1.173v8.95H22.458v-8.95h1.173V358.85H22.458v-8.417h6.566v8.417H27.851Z" transform="translate(-22.458 -350.434)" fill="#fff"/></g><g transform="translate(1.15)"><rect width="4.266" height="23.933" fill="#f42525"/></g></g></g><g transform="translate(1504 809)" fill="none" stroke="#f2f2f2" stroke-width="1"><rect width="38.25" height="24" stroke="none"/><rect x="-0.5" y="-0.5" width="39.25" height="25" fill="none"/></g></g><g transform="translate(846 639)"><g transform="translate(0 0.001)" fill="none" stroke="#e6e6e6" stroke-width="3"><ellipse cx="42.999" cy="43" rx="42.999" ry="43" stroke="none"/><ellipse cx="42.999" cy="43" rx="41.499" ry="41.5" fill="none"/></g><g transform="translate(0)" clip-path="url(#a)"><g transform="translate(0 0.001)" fill="none" stroke="#6f2c91" stroke-width="3"><ellipse cx="42.999" cy="43" rx="42.999" ry="43" stroke="none"/><ellipse cx="42.999" cy="43" rx="41.499" ry="41.5" fill="none"/></g></g></g></g></svg>