<svg xmlns="http://www.w3.org/2000/svg" width="32" height="32" viewBox="0 0 32 32"><g transform="translate(-447 -557)"><g transform="translate(447 557)" fill="#0c0824" stroke="#a259ff" stroke-width="1.5"><rect width="32" height="32" stroke="none"/><rect x="0.75" y="0.75" width="30.5" height="30.5" fill="none"/></g><g transform="translate(456 563)"><path d="M3.271,206.543a3.273,3.273,0,0,0,3.271-3.271V200H3.271a3.271,3.271,0,1,0,0,6.543Z" transform="translate(0 -186.914)" fill="#0acf83"/><path d="M0,103.271A3.273,3.273,0,0,1,3.271,100H6.543v6.543H3.271A3.273,3.273,0,0,1,0,103.271Z" transform="translate(0 -93.457)" fill="#a259ff"/><path d="M0,3.271A3.273,3.273,0,0,1,3.271,0H6.543V6.543H3.271A3.273,3.273,0,0,1,0,3.271Z" fill="#f24e1e"/><path d="M100,0h3.271a3.271,3.271,0,0,1,0,6.543H100Z" transform="translate(-93.457)" fill="#ff7262"/><path d="M106.543,103.271A3.271,3.271,0,1,1,103.271,100,3.273,3.273,0,0,1,106.543,103.271Z" transform="translate(-93.457 -93.457)" fill="#1abcfe"/></g></g></svg>