<svg xmlns="http://www.w3.org/2000/svg" width="32" height="32" viewBox="0 0 32 32"><g transform="translate(-698 -951)"><rect width="32" height="32" transform="translate(698 951)" fill="none"/><path d="M28-20a3.828,3.828,0,0,1,1.547.32,4.1,4.1,0,0,1,1.273.859,4.1,4.1,0,0,1,.859,1.273A3.828,3.828,0,0,1,32-16a3.811,3.811,0,0,1-.32,1.555,4.123,4.123,0,0,1-.859,1.266,4.1,4.1,0,0,1-1.273.859A3.828,3.828,0,0,1,28-12H21L15,0H8l4-12H8L7-10H0l2-6L0-22H7l1,2h4L8-32h7l6,12Zm0,6a1.938,1.938,0,0,0,.781-.156,2.033,2.033,0,0,0,.633-.43,2.033,2.033,0,0,0,.43-.633A1.938,1.938,0,0,0,30-16a1.938,1.938,0,0,0-.156-.781,2.033,2.033,0,0,0-.43-.633,2.033,2.033,0,0,0-.633-.43A1.938,1.938,0,0,0,28-18H19.766q-1.547-3-3.016-5.992T13.766-30H10.781q1,3.016,1.984,6.008T14.781-18H6.766l-1-2H2.781q.328,1,.648,2t.68,2q-.359,1-.68,2t-.648,2H5.766l1-2h8.016q-1.031,3-2.016,5.992T10.781-2h2.984q1.516-3.016,2.984-6.008T19.766-14Z" transform="translate(698 983)" fill="#6f2c91"/></g></svg>