<svg xmlns="http://www.w3.org/2000/svg" width="24" height="24" viewBox="0 0 24 24"><path d="M11.227-8.437a8.335,8.335,0,0,1,2.156,1.248A8.291,8.291,0,0,1,15.047-5.4a8.4,8.4,0,0,1,1.072,2.191A7.984,7.984,0,0,1,16.5-.75V0H15V-.75a6.53,6.53,0,0,0-.533-2.625A6.854,6.854,0,0,0,13.02-5.52a6.854,6.854,0,0,0-2.145-1.447A6.53,6.53,0,0,0,8.25-7.5a6.53,6.53,0,0,0-2.625.533A6.854,6.854,0,0,0,3.48-5.52,6.854,6.854,0,0,0,2.033-3.375,6.53,6.53,0,0,0,1.5-.75V0H0V-.75A7.984,7.984,0,0,1,.381-3.211,8.4,8.4,0,0,1,1.453-5.4,8.291,8.291,0,0,1,3.117-7.189,8.335,8.335,0,0,1,5.273-8.437a5.135,5.135,0,0,1-.949-.844,5.33,5.33,0,0,1-.715-1.037,5.388,5.388,0,0,1-.451-1.172A5.038,5.038,0,0,1,3-12.75a5.065,5.065,0,0,1,.416-2.045,5.348,5.348,0,0,1,1.125-1.664,5.348,5.348,0,0,1,1.664-1.125A5.065,5.065,0,0,1,8.25-18a5.065,5.065,0,0,1,2.045.416,5.348,5.348,0,0,1,1.664,1.125,5.348,5.348,0,0,1,1.125,1.664A5.065,5.065,0,0,1,13.5-12.75a5.038,5.038,0,0,1-.158,1.26,5.388,5.388,0,0,1-.451,1.172,5.33,5.33,0,0,1-.715,1.037A5.135,5.135,0,0,1,11.227-8.437ZM8.25-9A3.632,3.632,0,0,0,9.7-9.293a3.781,3.781,0,0,0,1.189-.8,3.845,3.845,0,0,0,.809-1.2A3.611,3.611,0,0,0,12-12.75a3.57,3.57,0,0,0-.3-1.453,3.865,3.865,0,0,0-.809-1.189A3.865,3.865,0,0,0,9.7-16.2a3.57,3.57,0,0,0-1.453-.3,3.611,3.611,0,0,0-1.459.3,3.845,3.845,0,0,0-1.2.809,3.781,3.781,0,0,0-.8,1.189A3.632,3.632,0,0,0,4.5-12.75a3.674,3.674,0,0,0,.293,1.459,3.763,3.763,0,0,0,.8,1.2,3.763,3.763,0,0,0,1.2.8A3.674,3.674,0,0,0,8.25-9ZM24-24v12H21L16.5-7.5V-12H15v-1.5h3v2.379L20.379-13.5H22.5v-9H7.5v2.7q-.375.047-.756.123A5.374,5.374,0,0,0,6-19.477V-24Z" transform="translate(0 24)" fill="#6f2c91"/></svg>