<svg xmlns="http://www.w3.org/2000/svg" width="32.821" height="32" viewBox="0 0 32.821 32"><path d="M10,10H40.085V39.265H10Z" transform="translate(-8.632 -8.632)" fill="#2e001e"/><path d="M0,0V32H32.821V0ZM1.368,1.368H31.453V30.632H1.368Z" fill="#ff2bc2"/><path d="M62.86,61.353a1.878,1.878,0,0,0-.793-.137c-1.723,0-2.872,1.326-2.872,3.528,0,2.516,1.176,3.528,2.708,3.528a2.58,2.58,0,0,0,.944-.15V61.353Zm-6.126,3.5c0-3.186,2.051-5.675,5.415-5.675a6.064,6.064,0,0,1,.711.027V55.65A.137.137,0,0,1,63,55.514h2.2c.109,0,.137.041.137.109v12.5a9.741,9.741,0,0,0,.068,1.34c0,.1,0,.109-.082.15a8.146,8.146,0,0,1-3.5.793C58.853,70.406,56.734,68.574,56.734,64.854ZM52.07,62.638,55.9,70.064c.068.109.027.219-.082.219H53.438a.268.268,0,0,1-.287-.178q-1.313-2.708-2.68-5.621h-.027c-.821,1.832-1.723,3.829-2.6,5.634a.263.263,0,0,1-.246.15h-2.27c-.137,0-.15-.109-.082-.191l3.747-7.207L45.37,55.705a.121.121,0,0,1,.1-.205h2.352c.137,0,.205.027.246.15.862,1.819,1.737,3.61,2.557,5.443h.027c.793-1.805,1.668-3.624,2.5-5.415.068-.109.109-.178.246-.178h2.2c.109,0,.15.082.082.205Z" transform="translate(-39.024 -47.91)" fill="#ff2bc2"/></svg>