<svg xmlns="http://www.w3.org/2000/svg" xmlns:xlink="http://www.w3.org/1999/xlink" width="32.821" height="32" viewBox="0 0 32.821 32"><defs><radialGradient id="a" cx="-0.277" cy="-8.123" r="0.781" gradientTransform="translate(-0.007 -0.249) scale(0.973 0.968)" gradientUnits="objectBoundingBox"><stop offset="0" stop-color="#442f55" stop-opacity="0.98"/><stop offset="1" stop-color="#12002c"/></radialGradient></defs><g transform="translate(0 -130.746)"><path d="M24.8,155.549H54.889v29.265H24.8Z" transform="translate(-23.435 -23.436)" fill="url(#a)"/><path d="M1.368,132.113H31.453v29.265H1.368ZM0,162.746H32.821v-32H0Zm23.221-16.574a6.047,6.047,0,0,0,1.012-.027c0-.1.027-.164.027-.232a1.9,1.9,0,0,0-1.778-2.106c-1.313,0-1.873,1.149-2.01,2.366Zm-2.776,1.873c.027,1.846.9,3.091,2.981,3.091a5.352,5.352,0,0,0,2.229-.424c.1-.041.164-.027.164.1v1.709a.29.29,0,0,1-.137.273,6.2,6.2,0,0,1-2.749.52c-3.61,0-4.964-2.667-4.964-5.634,0-3.227,1.668-5.867,4.609-5.867,2.981,0,4.021,2.5,4.021,4.54a6.916,6.916,0,0,1-.109,1.45.2.2,0,0,1-.178.178,19.8,19.8,0,0,1-2.284.1H20.444Zm-7.33-1.395c-.383-1.518-1.313-4.827-1.655-6.427h-.027c-.287,1.6-1.039,4.308-1.6,6.427Zm-3.843,2.215-1.08,4.089c-.027.109-.068.15-.205.15H5.976c-.137,0-.164-.041-.137-.205l3.884-13.58A4.192,4.192,0,0,0,9.86,138.2c0-.1.041-.137.109-.137h2.872c.1,0,.137.027.164.137l4.349,14.728c.027.109,0,.178-.109.178H14.988a.185.185,0,0,1-.205-.137l-1.121-4.1H9.272Z" fill="#d8a1ff"/></g></svg>