<svg xmlns="http://www.w3.org/2000/svg" width="32" height="32" viewBox="0 0 32 32"><defs><style>.a{fill:#e84c88;}.b{fill:#fff;}</style></defs><g transform="translate(12606 14668)"><circle class="a" cx="16" cy="16" r="16" transform="translate(-12606 -14668)"/><path class="b" d="M26.662,37.923A11.262,11.262,0,1,1,37.923,26.662,11.287,11.287,0,0,1,26.662,37.923ZM36.169,28.2a14.378,14.378,0,0,0-6-.4,42.442,42.442,0,0,1,1.846,6.862A9.839,9.839,0,0,0,36.169,28.2Zm-5.754,7.323A40.607,40.607,0,0,0,28.354,28.2h-.062a13.526,13.526,0,0,0-7.538,6,9.757,9.757,0,0,0,5.908,2.062,9.393,9.393,0,0,0,3.754-.738Zm-10.892-2.4a15.272,15.272,0,0,1,7.815-6.338.947.947,0,0,1,.4-.092c-.246-.554-.492-1.108-.8-1.662a33.927,33.927,0,0,1-9.908,1.354v.308a9.637,9.637,0,0,0,2.492,6.431Zm-2.277-8.4a38.328,38.328,0,0,0,8.892-1.138A59.218,59.218,0,0,0,22.6,18.046,9.325,9.325,0,0,0,17.246,24.723Zm7.169-7.354a58.779,58.779,0,0,1,3.6,5.6,11.389,11.389,0,0,0,5.046-3.446,9.53,9.53,0,0,0-6.338-2.4,6.2,6.2,0,0,0-2.308.246ZM34.108,20.6a13.143,13.143,0,0,1-5.354,3.815c.215.462.462.892.646,1.385.062.154.154.338.215.492a22.857,22.857,0,0,1,6.708.308A9.831,9.831,0,0,0,34.108,20.6Z" transform="translate(-12616.661 -14678.661)"/></g></svg>