<svg xmlns="http://www.w3.org/2000/svg" xmlns:xlink="http://www.w3.org/1999/xlink" width="86" height="86" viewBox="0 0 86 86"><defs><clipPath id="a"><path d="M0,0V86H44V0Z" transform="translate(43.999 86) rotate(180)" fill="#fff" stroke="#707070" stroke-width="3"/></clipPath></defs><g transform="translate(-985 -641)"><g transform="translate(-345.99 -137)"><g transform="translate(1354.99 809)"><rect width="38.237" height="24" fill="#e83434"/><rect width="38.257" height="11.054" transform="translate(0 6.403)" fill="#fff915"/></g><g transform="translate(1354.998 809)" fill="none" stroke="#f2f2f2" stroke-width="1"><rect width="38.25" height="24" stroke="none"/><rect x="-0.5" y="-0.5" width="39.25" height="25" fill="none"/></g></g><g transform="translate(985 641)"><g transform="translate(0)" fill="none" stroke="#e6e6e6" stroke-width="3"><ellipse cx="43" cy="43" rx="43" ry="43" stroke="none"/><ellipse cx="43" cy="43" rx="41.5" ry="41.5" fill="none"/></g><g transform="translate(42 0)" clip-path="url(#a)"><g transform="translate(-43.001 0.001)" fill="none"><path d="M43.5,0C67.524,0,87,19.252,87,43S67.524,86,43.5,86,0,66.748,0,43,19.476,0,43.5,0Z" stroke="none"/><path d="M 43.5 2.999992370605469 C 38.02692794799805 2.999992370605469 32.7194709777832 4.05877685546875 27.72505569458008 6.146934509277344 C 22.90175628662109 8.163566589355469 18.56991577148438 11.05059814453125 14.84986877441406 14.72785186767578 C 11.13222503662109 18.40274047851563 8.214103698730469 22.68052291870117 6.17657470703125 27.4423942565918 C 4.068756103515625 32.36850738525391 3 37.60272216796875 3 42.99963760375977 C 3 48.39655303955078 4.068756103515625 53.63076782226563 6.17657470703125 58.55688095092773 C 8.214103698730469 63.31875228881836 11.13222503662109 67.59654235839844 14.84986877441406 71.27142333984375 C 18.56991577148438 74.94868469238281 22.90175628662109 77.83570861816406 27.72505569458008 79.85234069824219 C 32.7194709777832 81.94049072265625 38.02692794799805 82.99928283691406 43.5 82.99928283691406 C 48.97307205200195 82.99928283691406 54.2805290222168 81.94049072265625 59.27494049072266 79.85234069824219 C 64.09824371337891 77.83570861816406 68.43008422851563 74.94868469238281 72.15013122558594 71.27142333984375 C 75.86776733398438 67.59654235839844 78.78590393066406 63.31875228881836 80.82342529296875 58.55688095092773 C 82.93124389648438 53.63076782226563 84 48.39655303955078 84 42.99963760375977 C 84 37.60272216796875 82.93124389648438 32.36850738525391 80.82342529296875 27.4423942565918 C 78.78590393066406 22.68052291870117 75.86776733398438 18.40274047851563 72.15013122558594 14.72785186767578 C 68.43008422851563 11.05059814453125 64.09824371337891 8.163566589355469 59.27494049072266 6.146934509277344 C 54.2805290222168 4.05877685546875 48.97307205200195 2.999992370605469 43.5 2.999992370605469 M 43.5 -7.62939453125e-06 C 67.52438354492188 -7.62939453125e-06 87 19.25159454345703 87 42.99963760375977 C 87 66.7476806640625 67.52438354492188 85.99928283691406 43.5 85.99928283691406 C 19.47561645507813 85.99928283691406 0 66.7476806640625 0 42.99963760375977 C 0 19.25159454345703 19.47561645507813 -7.62939453125e-06 43.5 -7.62939453125e-06 Z" stroke="none" fill="#6f2c91"/></g></g></g></g></svg>