<svg xmlns="http://www.w3.org/2000/svg" width="22.5" height="24" viewBox="0 0 22.5 24"><path d="M21-12.363a7.07,7.07,0,0,1,1.26,1.1A6.724,6.724,0,0,1,23.2-9.932,6.71,6.71,0,0,1,23.795-8.4,6.7,6.7,0,0,1,24-6.75a6.53,6.53,0,0,1-.533,2.625A6.854,6.854,0,0,1,22.02-1.98,6.854,6.854,0,0,1,19.875-.533,6.53,6.53,0,0,1,17.25,0a6.659,6.659,0,0,1-2.062-.322,6.772,6.772,0,0,1-1.834-.914A6.8,6.8,0,0,1,11.877-2.66a6.536,6.536,0,0,1-.99-1.84H1.5v-18h3V-24H6v1.5H16.5V-24H18v1.5h3ZM3-21v3H19.5v-3H18v1.5H16.5V-21H6v1.5H4.5V-21ZM10.535-6q-.035-.363-.035-.75a6.723,6.723,0,0,1,.287-1.957,6.731,6.731,0,0,1,.85-1.793H10.5V-12H12v1.008a6.554,6.554,0,0,1,1.072-1.061,6.836,6.836,0,0,1,1.266-.785,6.794,6.794,0,0,1,1.412-.492,6.666,6.666,0,0,1,1.5-.17,6.614,6.614,0,0,1,2.25.387V-16.5H3V-6ZM17.25-1.5a5.065,5.065,0,0,0,2.045-.416,5.348,5.348,0,0,0,1.664-1.125,5.348,5.348,0,0,0,1.125-1.664A5.065,5.065,0,0,0,22.5-6.75a5.065,5.065,0,0,0-.416-2.045,5.348,5.348,0,0,0-1.125-1.664,5.348,5.348,0,0,0-1.664-1.125A5.065,5.065,0,0,0,17.25-12a5.065,5.065,0,0,0-2.045.416,5.348,5.348,0,0,0-1.664,1.125,5.348,5.348,0,0,0-1.125,1.664A5.064,5.064,0,0,0,12-6.75a5.065,5.065,0,0,0,.416,2.045,5.348,5.348,0,0,0,1.125,1.664,5.348,5.348,0,0,0,1.664,1.125A5.065,5.065,0,0,0,17.25-1.5Zm.75-6h2.25V-6H16.5v-4.5H18ZM4.5-12H6v1.5H4.5Zm3,0H9v1.5H7.5Zm0-3H9v1.5H7.5Zm-3,6H6v1.5H4.5Zm3,0H9v1.5H7.5ZM12-13.5H10.5V-15H12Zm3,0H13.5V-15H15Zm3,0H16.5V-15H18Z" transform="translate(-1.5 24)" fill="#6f2c91"/></svg>