<svg xmlns="http://www.w3.org/2000/svg" width="32" height="32" viewBox="0 0 32 32"><g transform="translate(-552 -952)"><rect width="32" height="32" transform="translate(552 952)" fill="none"/><path d="M32-28V-4H0V-28H8.578l2-2H21.422l2,2Zm-2,2H22.578l-2-2H11.422l-2,2H2V-6H30ZM16-24a7.841,7.841,0,0,1,3.117.625,8.028,8.028,0,0,1,2.547,1.711,8.028,8.028,0,0,1,1.711,2.547A7.841,7.841,0,0,1,24-16a7.841,7.841,0,0,1-.625,3.117,8.028,8.028,0,0,1-1.711,2.547,8.028,8.028,0,0,1-2.547,1.711A7.841,7.841,0,0,1,16-8a7.841,7.841,0,0,1-3.117-.625,8.028,8.028,0,0,1-2.547-1.711,8.028,8.028,0,0,1-1.711-2.547A7.841,7.841,0,0,1,8-16a7.841,7.841,0,0,1,.625-3.117,8.028,8.028,0,0,1,1.711-2.547,8.028,8.028,0,0,1,2.547-1.711A7.841,7.841,0,0,1,16-24Zm0,14a5.765,5.765,0,0,0,2.328-.477,6.129,6.129,0,0,0,1.906-1.289,6.129,6.129,0,0,0,1.289-1.906A5.765,5.765,0,0,0,22-16a5.765,5.765,0,0,0-.477-2.328,6.129,6.129,0,0,0-1.289-1.906,6.129,6.129,0,0,0-1.906-1.289A5.765,5.765,0,0,0,16-22a5.765,5.765,0,0,0-2.328.477,6.129,6.129,0,0,0-1.906,1.289,6.129,6.129,0,0,0-1.289,1.906A5.765,5.765,0,0,0,10-16a5.765,5.765,0,0,0,.477,2.328,6.129,6.129,0,0,0,1.289,1.906,6.129,6.129,0,0,0,1.906,1.289A5.765,5.765,0,0,0,16-10ZM5-24a.961.961,0,0,1,.7.3A.961.961,0,0,1,6-23a.961.961,0,0,1-.3.7A.961.961,0,0,1,5-22a.961.961,0,0,1-.7-.3A.961.961,0,0,1,4-23a.961.961,0,0,1,.3-.7A.961.961,0,0,1,5-24Z" transform="translate(552 985)" fill="#6f2c91"/></g></svg>