<svg xmlns="http://www.w3.org/2000/svg" width="24" height="24" viewBox="0 0 24 24"><path d="M12-24a11.82,11.82,0,0,1,3.188.428,12.136,12.136,0,0,1,2.871,1.207A11.917,11.917,0,0,1,20.49-20.49a11.917,11.917,0,0,1,1.875,2.432,12.136,12.136,0,0,1,1.207,2.871A11.82,11.82,0,0,1,24-12a11.82,11.82,0,0,1-.428,3.188,12.135,12.135,0,0,1-1.207,2.871A11.917,11.917,0,0,1,20.49-3.51a11.917,11.917,0,0,1-2.432,1.875A12.135,12.135,0,0,1,15.188-.428,11.82,11.82,0,0,1,12,0a2.858,2.858,0,0,1-1.166-.24,3.092,3.092,0,0,1-.949-.645,3.092,3.092,0,0,1-.645-.949A2.858,2.858,0,0,1,9-3a4.005,4.005,0,0,1,.111-1,4.553,4.553,0,0,1,.275-.779,5.268,5.268,0,0,1,.363-.656q.2-.3.363-.615a4.077,4.077,0,0,0,.275-.656A2.579,2.579,0,0,0,10.5-7.5a2.871,2.871,0,0,0-.24-1.16,3.073,3.073,0,0,0-.645-.955,3.073,3.073,0,0,0-.955-.645A2.871,2.871,0,0,0,7.5-10.5a2.579,2.579,0,0,0-.791.111,4.077,4.077,0,0,0-.656.275q-.311.164-.615.363a5.267,5.267,0,0,1-.656.363A4.5,4.5,0,0,1,4-9.111,4.022,4.022,0,0,1,3-9a2.858,2.858,0,0,1-1.166-.24,3.092,3.092,0,0,1-.949-.645,3.092,3.092,0,0,1-.645-.949A2.858,2.858,0,0,1,0-12a11.82,11.82,0,0,1,.428-3.187,12.136,12.136,0,0,1,1.207-2.871A11.917,11.917,0,0,1,3.51-20.49a11.917,11.917,0,0,1,2.432-1.875,12.161,12.161,0,0,1,2.865-1.207A11.8,11.8,0,0,1,12-24ZM12-1.5a10.292,10.292,0,0,0,2.783-.375,10.5,10.5,0,0,0,2.508-1.061,10.58,10.58,0,0,0,2.127-1.646,10.58,10.58,0,0,0,1.646-2.127,10.5,10.5,0,0,0,1.061-2.508A10.292,10.292,0,0,0,22.5-12a10.292,10.292,0,0,0-.375-2.783,10.5,10.5,0,0,0-1.061-2.508,10.58,10.58,0,0,0-1.646-2.127,10.58,10.58,0,0,0-2.127-1.646,10.5,10.5,0,0,0-2.508-1.061A10.292,10.292,0,0,0,12-22.5a10.292,10.292,0,0,0-2.783.375,10.5,10.5,0,0,0-2.508,1.061,10.58,10.58,0,0,0-2.127,1.646,10.58,10.58,0,0,0-1.646,2.127,10.5,10.5,0,0,0-1.061,2.508A10.292,10.292,0,0,0,1.5-12a1.454,1.454,0,0,0,.117.586,1.524,1.524,0,0,0,.322.475,1.524,1.524,0,0,0,.475.322A1.454,1.454,0,0,0,3-10.5a2.579,2.579,0,0,0,.791-.111,4.077,4.077,0,0,0,.656-.275,6.956,6.956,0,0,0,.609-.363,5.108,5.108,0,0,1,.645-.363,4.327,4.327,0,0,1,.779-.275A4.131,4.131,0,0,1,7.5-12a4.415,4.415,0,0,1,1.758.352,4.515,4.515,0,0,1,1.43.961,4.515,4.515,0,0,1,.961,1.43A4.415,4.415,0,0,1,12-7.5a4.148,4.148,0,0,1-.111,1.014,4.287,4.287,0,0,1-.275.785,5.108,5.108,0,0,1-.363.645,6.956,6.956,0,0,0-.363.609,4.077,4.077,0,0,0-.275.656A2.579,2.579,0,0,0,10.5-3a1.454,1.454,0,0,0,.117.586,1.524,1.524,0,0,0,.322.475,1.524,1.524,0,0,0,.475.322A1.454,1.454,0,0,0,12-1.5Zm-6-15a1.454,1.454,0,0,1,.586.117,1.524,1.524,0,0,1,.475.322,1.524,1.524,0,0,1,.322.475A1.454,1.454,0,0,1,7.5-15a1.454,1.454,0,0,1-.117.586,1.524,1.524,0,0,1-.322.475,1.524,1.524,0,0,1-.475.322A1.453,1.453,0,0,1,6-13.5a1.454,1.454,0,0,1-.586-.117,1.524,1.524,0,0,1-.475-.322,1.524,1.524,0,0,1-.322-.475A1.453,1.453,0,0,1,4.5-15a1.454,1.454,0,0,1,.117-.586,1.524,1.524,0,0,1,.322-.475,1.524,1.524,0,0,1,.475-.322A1.454,1.454,0,0,1,6-16.5Zm4.5-3a1.454,1.454,0,0,1,.586.117,1.524,1.524,0,0,1,.475.322,1.524,1.524,0,0,1,.322.475A1.454,1.454,0,0,1,12-18a1.454,1.454,0,0,1-.117.586,1.524,1.524,0,0,1-.322.475,1.524,1.524,0,0,1-.475.322,1.453,1.453,0,0,1-.586.117,1.454,1.454,0,0,1-.586-.117,1.524,1.524,0,0,1-.475-.322,1.524,1.524,0,0,1-.322-.475A1.454,1.454,0,0,1,9-18a1.454,1.454,0,0,1,.117-.586,1.524,1.524,0,0,1,.322-.475,1.524,1.524,0,0,1,.475-.322A1.454,1.454,0,0,1,10.5-19.5Zm6,4.5a1.454,1.454,0,0,1-.586-.117,1.524,1.524,0,0,1-.475-.322,1.524,1.524,0,0,1-.322-.475A1.453,1.453,0,0,1,15-16.5a1.454,1.454,0,0,1,.117-.586,1.524,1.524,0,0,1,.322-.475,1.524,1.524,0,0,1,.475-.322A1.454,1.454,0,0,1,16.5-18a1.454,1.454,0,0,1,.586.117,1.525,1.525,0,0,1,.475.322,1.524,1.524,0,0,1,.322.475A1.454,1.454,0,0,1,18-16.5a1.454,1.454,0,0,1-.117.586,1.524,1.524,0,0,1-.322.475,1.524,1.524,0,0,1-.475.322A1.453,1.453,0,0,1,16.5-15ZM18-12a1.454,1.454,0,0,1,.586.117,1.524,1.524,0,0,1,.475.322,1.524,1.524,0,0,1,.322.475,1.454,1.454,0,0,1,.117.586,1.454,1.454,0,0,1-.117.586,1.524,1.524,0,0,1-.322.475,1.524,1.524,0,0,1-.475.322A1.454,1.454,0,0,1,18-9a1.454,1.454,0,0,1-.586-.117,1.524,1.524,0,0,1-.475-.322,1.524,1.524,0,0,1-.322-.475A1.453,1.453,0,0,1,16.5-10.5a1.454,1.454,0,0,1,.117-.586,1.524,1.524,0,0,1,.322-.475,1.524,1.524,0,0,1,.475-.322A1.454,1.454,0,0,1,18-12ZM15-7.5a1.454,1.454,0,0,1,.586.117,1.524,1.524,0,0,1,.475.322,1.524,1.524,0,0,1,.322.475A1.454,1.454,0,0,1,16.5-6a1.454,1.454,0,0,1-.117.586,1.524,1.524,0,0,1-.322.475,1.524,1.524,0,0,1-.475.322A1.454,1.454,0,0,1,15-4.5a1.454,1.454,0,0,1-.586-.117,1.524,1.524,0,0,1-.475-.322,1.524,1.524,0,0,1-.322-.475A1.453,1.453,0,0,1,13.5-6a1.454,1.454,0,0,1,.117-.586,1.524,1.524,0,0,1,.322-.475,1.524,1.524,0,0,1,.475-.322A1.454,1.454,0,0,1,15-7.5Z" transform="translate(0 24)" fill="gray"/></svg>