<svg xmlns="http://www.w3.org/2000/svg" width="24" height="21.012" viewBox="0 0 24 21.012"><path d="M17.625-22.5a6.168,6.168,0,0,1,2.484.5,6.549,6.549,0,0,1,2.027,1.365A6.329,6.329,0,0,1,23.5-18.6a6.243,6.243,0,0,1,.5,2.479,6.328,6.328,0,0,1-.486,2.449,6.306,6.306,0,0,1-1.377,2.063L12-1.488,1.863-11.613A6.306,6.306,0,0,1,.486-13.676,6.328,6.328,0,0,1,0-16.125,6.243,6.243,0,0,1,.5-18.6a6.329,6.329,0,0,1,1.365-2.027A6.549,6.549,0,0,1,3.891-22a6.168,6.168,0,0,1,2.484-.5,6.187,6.187,0,0,1,1.734.223,5.949,5.949,0,0,1,1.412.615,7.554,7.554,0,0,1,1.242.943q.592.551,1.236,1.207.645-.656,1.236-1.207a7.554,7.554,0,0,1,1.242-.943,5.949,5.949,0,0,1,1.412-.615A6.187,6.187,0,0,1,17.625-22.5Zm3.445,9.82a4.761,4.761,0,0,0,1.055-1.582,4.887,4.887,0,0,0,.363-1.863,4.829,4.829,0,0,0-.375-1.9,4.7,4.7,0,0,0-1.037-1.535,4.847,4.847,0,0,0-1.547-1.02,4.9,4.9,0,0,0-1.9-.369,4.6,4.6,0,0,0-1.746.311,5.87,5.87,0,0,0-1.406.814,10.529,10.529,0,0,0-1.236,1.143q-.592.639-1.236,1.295-.633-.633-1.23-1.277a11.154,11.154,0,0,0-1.248-1.16A6.186,6.186,0,0,0,8.1-20.672,4.357,4.357,0,0,0,6.375-21a4.777,4.777,0,0,0-1.9.381,4.892,4.892,0,0,0-1.553,1.043,4.892,4.892,0,0,0-1.043,1.553,4.777,4.777,0,0,0-.381,1.9,4.819,4.819,0,0,0,.369,1.863A4.838,4.838,0,0,0,2.93-12.68L12-3.609Z" transform="translate(0 22.5)" fill="#6f2c91"/></svg>