<svg xmlns="http://www.w3.org/2000/svg" width="64" height="65" viewBox="0 0 64 65"><g transform="translate(-829 -1737)"><rect width="64" height="65" transform="translate(829 1737)" fill="none"/><path d="M8-48a15.845,15.845,0,0,1-.516,4.031A16.337,16.337,0,0,1,6-40.234a15.669,15.669,0,0,1-2.375,3.25A15.181,15.181,0,0,1,.469-34.437a25.031,25.031,0,0,1,6.813,4.031L4.719-27.344A21.043,21.043,0,0,0-1.234-30.8,19.081,19.081,0,0,0-8-32a19.578,19.578,0,0,0-5.312.719,20.287,20.287,0,0,0-4.781,2.016,19.911,19.911,0,0,0-4.047,3.125,19.911,19.911,0,0,0-3.125,4.047,20.286,20.286,0,0,0-2.016,4.781A19.578,19.578,0,0,0-28-12h-4a23.547,23.547,0,0,1,1.109-7.156,24.468,24.468,0,0,1,3.156-6.484,24.57,24.57,0,0,1,4.906-5.281A21.313,21.313,0,0,1-16.5-34.437a16.857,16.857,0,0,1-3.141-2.594A15.785,15.785,0,0,1-22-40.25a16.1,16.1,0,0,1-1.484-3.7A15.788,15.788,0,0,1-24-48a15.682,15.682,0,0,1,1.25-6.234,16.056,16.056,0,0,1,3.422-5.094,16.056,16.056,0,0,1,5.094-3.422A15.682,15.682,0,0,1-8-64a15.682,15.682,0,0,1,6.234,1.25,16.056,16.056,0,0,1,5.094,3.422A16.056,16.056,0,0,1,6.75-54.234,15.682,15.682,0,0,1,8-48ZM-8-36a11.7,11.7,0,0,0,4.656-.937A12.1,12.1,0,0,0,.484-39.516a12.144,12.144,0,0,0,2.578-3.812A11.661,11.661,0,0,0,4-48a11.7,11.7,0,0,0-.937-4.656A12.1,12.1,0,0,0,.484-56.484a12.1,12.1,0,0,0-3.828-2.578A11.7,11.7,0,0,0-8-60a11.661,11.661,0,0,0-4.672.938,12.144,12.144,0,0,0-3.812,2.578,12.1,12.1,0,0,0-2.578,3.828A11.7,11.7,0,0,0-20-48a11.661,11.661,0,0,0,.938,4.672,12.144,12.144,0,0,0,2.578,3.813,12.144,12.144,0,0,0,3.813,2.578A11.661,11.661,0,0,0-8-36ZM30-22a9.825,9.825,0,0,1-.516,3.156A10.293,10.293,0,0,1,28-16V0L20-4,12,0V-16a10.293,10.293,0,0,1-1.484-2.844A9.825,9.825,0,0,1,10-22a9.684,9.684,0,0,1,.781-3.875,10.084,10.084,0,0,1,2.141-3.172A10.254,10.254,0,0,1,16.109-31.2,9.63,9.63,0,0,1,20-32a9.521,9.521,0,0,1,3.875.8,10.306,10.306,0,0,1,3.172,2.156A10.306,10.306,0,0,1,29.2-25.875,9.521,9.521,0,0,1,30-22ZM20-28a5.886,5.886,0,0,0-2.344.469A6.02,6.02,0,0,0,15.75-26.25a6.02,6.02,0,0,0-1.281,1.906A5.886,5.886,0,0,0,14-22a5.886,5.886,0,0,0,.469,2.344A6.02,6.02,0,0,0,15.75-17.75a6.02,6.02,0,0,0,1.906,1.281A5.886,5.886,0,0,0,20-16a5.886,5.886,0,0,0,2.344-.469A6.02,6.02,0,0,0,24.25-17.75a6.02,6.02,0,0,0,1.281-1.906A5.886,5.886,0,0,0,26-22a5.886,5.886,0,0,0-.469-2.344A6.02,6.02,0,0,0,24.25-26.25a6.02,6.02,0,0,0-1.906-1.281A5.886,5.886,0,0,0,20-28ZM20-8.469q1,.531,2,1.016t2,.984v-6.375A9.635,9.635,0,0,1,20-12a9.635,9.635,0,0,1-4-.844v6.375q1-.5,2-.984T20-8.469Z" transform="translate(861 1801)" fill="gray"/></g></svg>