<svg xmlns="http://www.w3.org/2000/svg" width="16" height="16.008" viewBox="0 0 16 16.008"><path d="M12.561-14.519a1.734,1.734,0,0,1,.66.129,1.678,1.678,0,0,1,.559.371L15.5-12.3a1.678,1.678,0,0,1,.371.559,1.734,1.734,0,0,1,.129.66,1.734,1.734,0,0,1-.129.66,1.678,1.678,0,0,1-.371.559l-.109.109q-.422.422-.774.75a4.1,4.1,0,0,1-.735.551,3.254,3.254,0,0,1-.852.34,4.657,4.657,0,0,1-1.118.117A7.073,7.073,0,0,1,9.9-8.3a11.145,11.145,0,0,1-2.052-.844,14.711,14.711,0,0,1-2-1.282A17.342,17.342,0,0,1,4-12.045a17.794,17.794,0,0,1-1.606-1.86,14.575,14.575,0,0,1-1.266-2A11.222,11.222,0,0,1,.3-17.942a7.007,7.007,0,0,1-.3-1.97,4.71,4.71,0,0,1,.113-1.11,3.177,3.177,0,0,1,.336-.844A4.08,4.08,0,0,1,1-22.6q.324-.348.746-.77l.125-.125a1.741,1.741,0,0,1,.555-.375A1.681,1.681,0,0,1,3.087-24a1.69,1.69,0,0,1,.66.133,1.73,1.73,0,0,1,.559.375l1.72,1.72a1.678,1.678,0,0,1,.371.559,1.734,1.734,0,0,1,.129.66,1.525,1.525,0,0,1-.117.614,2.217,2.217,0,0,1-.289.489,2.893,2.893,0,0,1-.379.4q-.207.18-.379.352a2.3,2.3,0,0,0-.289.348.67.67,0,0,0-.117.379.693.693,0,0,0,.211.508l4.307,4.307a.693.693,0,0,0,.508.211.671.671,0,0,0,.379-.117,2.3,2.3,0,0,0,.348-.289q.172-.172.352-.379a2.893,2.893,0,0,1,.4-.379,2.217,2.217,0,0,1,.489-.289A1.525,1.525,0,0,1,12.561-14.519Zm-.649,5.526a3.571,3.571,0,0,0,.942-.106,2.432,2.432,0,0,0,.684-.3,3.532,3.532,0,0,0,.594-.5q.289-.3.664-.672a.693.693,0,0,0,.211-.508.68.68,0,0,0-.113-.332,2.934,2.934,0,0,0-.293-.4q-.18-.211-.4-.434t-.438-.422l-.4-.367q-.184-.168-.285-.27a.7.7,0,0,0-.516-.211.652.652,0,0,0-.375.117,2.412,2.412,0,0,0-.344.289q-.172.172-.356.379a3.081,3.081,0,0,1-.4.379,2.217,2.217,0,0,1-.489.289,1.525,1.525,0,0,1-.614.117,1.734,1.734,0,0,1-.66-.129,1.678,1.678,0,0,1-.559-.371L4.455-16.754a1.678,1.678,0,0,1-.371-.559,1.734,1.734,0,0,1-.129-.66,1.525,1.525,0,0,1,.117-.614,2.217,2.217,0,0,1,.289-.489,3.081,3.081,0,0,1,.379-.4q.207-.184.379-.356a2.413,2.413,0,0,0,.289-.344.652.652,0,0,0,.117-.375.7.7,0,0,0-.211-.516q-.1-.1-.27-.285l-.367-.4q-.2-.215-.422-.438t-.434-.4a2.934,2.934,0,0,0-.4-.293A.68.68,0,0,0,3.087-23a.693.693,0,0,0-.508.211q-.375.375-.668.664a3.983,3.983,0,0,0-.5.594,2.308,2.308,0,0,0-.313.684,3.535,3.535,0,0,0-.106.934,6.144,6.144,0,0,0,.285,1.806,10.156,10.156,0,0,0,.789,1.86,14.168,14.168,0,0,0,1.192,1.833,16.332,16.332,0,0,0,1.5,1.708A16.8,16.8,0,0,0,6.476-11.22,14.161,14.161,0,0,0,8.3-10.044a10.084,10.084,0,0,0,1.845.774A6.089,6.089,0,0,0,11.912-8.993Z" transform="translate(0 24)" fill="#e6e6e6"/></svg>