<svg xmlns="http://www.w3.org/2000/svg" width="64" height="65" viewBox="0 0 64 65"><g transform="translate(-1413 -1737)"><rect width="64" height="65" transform="translate(1413 1737)" fill="none"/><path d="M0-44a11.661,11.661,0,0,0-4.672.938,12.144,12.144,0,0,0-3.812,2.578,12.1,12.1,0,0,0-2.578,3.828A11.7,11.7,0,0,0-12-32a11.661,11.661,0,0,0,.938,4.672,12.144,12.144,0,0,0,2.578,3.813,12.144,12.144,0,0,0,3.813,2.578A11.661,11.661,0,0,0,0-20a11.7,11.7,0,0,0,4.656-.937,12.1,12.1,0,0,0,3.828-2.578,12.144,12.144,0,0,0,2.578-3.812A11.661,11.661,0,0,0,12-32a12.238,12.238,0,0,0-.687-4H15.5a16.867,16.867,0,0,1,.375,2A16.109,16.109,0,0,1,16-32a15.4,15.4,0,0,1-1.266,6.219A16.323,16.323,0,0,1,11.3-20.7a16.323,16.323,0,0,1-5.078,3.438A15.4,15.4,0,0,1,0-16a15.4,15.4,0,0,1-6.219-1.266A16.323,16.323,0,0,1-11.3-20.7a16.1,16.1,0,0,1-3.422-5.078A15.57,15.57,0,0,1-15.969-32a15.57,15.57,0,0,1,1.25-6.219A16.1,16.1,0,0,1-11.3-43.3a16.323,16.323,0,0,1,5.078-3.437A15.4,15.4,0,0,1,0-48a16.11,16.11,0,0,1,2,.125A16.867,16.867,0,0,1,4-47.5v4.188A12.238,12.238,0,0,0,0-44Zm27.063,4.844A27.775,27.775,0,0,1,28-32a27.444,27.444,0,0,1-1,7.422,28,28,0,0,1-2.828,6.688,28.213,28.213,0,0,1-4.391,5.672,28.214,28.214,0,0,1-5.672,4.391A28,28,0,0,1,7.422-5,27.444,27.444,0,0,1,0-4,27.444,27.444,0,0,1-7.422-5a28,28,0,0,1-6.687-2.828,28.214,28.214,0,0,1-5.672-4.391,28.213,28.213,0,0,1-4.391-5.672A28.069,28.069,0,0,1-27-24.562,27.391,27.391,0,0,1-28-32a27.444,27.444,0,0,1,1-7.422,28,28,0,0,1,2.828-6.687,28.214,28.214,0,0,1,4.391-5.672,28.214,28.214,0,0,1,5.672-4.391A28.069,28.069,0,0,1-7.437-59,27.392,27.392,0,0,1,0-60a27.775,27.775,0,0,1,7.156.938L4-55.906v.25q-1-.156-2-.25T0-56a23.484,23.484,0,0,0-6.375.859,24.326,24.326,0,0,0-5.734,2.422,23.923,23.923,0,0,0-4.859,3.75,23.923,23.923,0,0,0-3.75,4.859,24.326,24.326,0,0,0-2.422,5.734A23.484,23.484,0,0,0-24-32a23.484,23.484,0,0,0,.859,6.375,24.326,24.326,0,0,0,2.422,5.734,23.923,23.923,0,0,0,3.75,4.859,23.923,23.923,0,0,0,4.859,3.75A24.326,24.326,0,0,0-6.375-8.859,23.484,23.484,0,0,0,0-8a23.484,23.484,0,0,0,6.375-.859,24.326,24.326,0,0,0,5.734-2.422,23.923,23.923,0,0,0,4.859-3.75,23.923,23.923,0,0,0,3.75-4.859,24.326,24.326,0,0,0,2.422-5.734A23.484,23.484,0,0,0,24-32q0-1-.094-2t-.25-2h.25ZM8-42.844v-8.969l12-12V-52H31.813l-12,12H10.844L3.875-33.031A4,4,0,0,1,4-32a3.876,3.876,0,0,1-.312,1.563,4.065,4.065,0,0,1-.859,1.266,4.065,4.065,0,0,1-1.266.859A3.876,3.876,0,0,1,0-28a3.876,3.876,0,0,1-1.562-.312,4.065,4.065,0,0,1-1.266-.859,4.065,4.065,0,0,1-.859-1.266A3.876,3.876,0,0,1-4-32a3.876,3.876,0,0,1,.313-1.562,4.065,4.065,0,0,1,.859-1.266,4.065,4.065,0,0,1,1.266-.859A3.876,3.876,0,0,1,0-36a4,4,0,0,1,1.031.125ZM12-44h6.156l4-4H16v-6.156l-4,4Z" transform="translate(1445 1801)" fill="gray"/></g></svg>